<?xml version="1.0" encoding="UTF-8" standalone="no"?>
<svg width="29px" height="21px" viewBox="0 0 29 21" version="1.1" xmlns="http://www.w3.org/2000/svg" xmlns:xlink="http://www.w3.org/1999/xlink">
    <!-- Generator: Sketch 41.2 (35397) - http://www.bohemiancoding.com/sketch -->
    <title>Fill-2</title>
    <desc>Created with Sketch.</desc>
    <defs></defs>
    <g id="Page-1" stroke="none" stroke-width="1" fill="none" fill-rule="evenodd">
        <g id="icon-category-artsculture" transform="translate(0.000000, -5.000000)" fill="#FFFFFF">
            <g id="Discover">
                <g id="Discover-00-Select-Category-(Mobile)">
                    <g id="icon-category-artsculture">
                        <g id="Page-1">
                            <g id="Group-4" transform="translate(0.000000, 5.100000)">
                                <g id="Fill-2-Clipped">
                                    <path d="M14.4036576,18.75321 C13.7147616,18.75321 13.0762656,18.44031 12.6385056,17.91861 L14.4097056,17.12841 L16.1719776,17.91471 C15.7342176,18.43881 15.0939936,18.75321 14.4036576,18.75321 L14.4036576,18.75321 Z M14.4108576,15.48291 L10.5041376,13.73961 C11.3427936,12.34101 12.8193696,11.47041 14.4370656,11.47041 C16.0458336,11.47041 17.5178016,12.33381 18.3581856,13.72161 L14.4108576,15.48291 Z M20.3036256,14.48481 L28.8673056,10.66401 L28.5827616,9.97401 C26.1494496,4.07751 20.5970976,0.26751 14.4376416,0.26751 C8.2672416,0.26751 2.7114336,4.08651 0.2833056,9.99711 L-8.64e-05,10.68621 L12.5955936,16.30611 L10.6420896,17.17761 L10.9269216,17.86761 C11.5248096,19.31691 12.8896416,20.25321 14.4036576,20.25321 C15.9199776,20.25321 17.2853856,19.31451 17.8826976,17.86221 L18.1658016,17.17281 L16.2246816,16.30671 L20.3042016,14.48631 L20.3036256,14.48481 Z" id="Fill-2"></path>
                                </g>
                            </g>
                        </g>
                    </g>
                </g>
            </g>
        </g>
    </g>
</svg>