<?xml version="1.0" encoding="UTF-8" standalone="no"?>
<svg width="24px" height="28px" viewBox="0 0 24 28" version="1.1" xmlns="http://www.w3.org/2000/svg" xmlns:xlink="http://www.w3.org/1999/xlink">
    <!-- Generator: Sketch 41.2 (35397) - http://www.bohemiancoding.com/sketch -->
    <title>icon-category-concerts</title>
    <desc>Created with Sketch.</desc>
    <defs></defs>
    <g id="Page-1" stroke="none" stroke-width="1" fill="none" fill-rule="evenodd">
        <g id="icon-category-concerts" transform="translate(-3.000000, -2.000000)">
            <g id="Discover">
                <g>
                    <g id="Discover-00-Select-Category-(Mobile)">
                        <g id="icon-category-concerts">
                            <g id="Page-1" transform="translate(0.600000, 0.000000)">
                                <polygon id="Fill-1" points="0 30 28.8 30 28.8 0 0 0"></polygon>
                                <path d="M22.9487525,12.1184257 C22.9299327,12.1380297 22.9091168,12.1546634 22.8897267,12.1739703 L16.7633109,5.7919901 C16.7818455,5.77179208 16.7975287,5.75040594 16.8166337,5.73050495 C17.635295,4.87743564 18.7242772,4.40783168 19.8825505,4.40783168 C21.0408238,4.40783168 22.1295208,4.87743564 22.9487525,5.73050495 C23.767699,6.58357426 24.218804,7.71822772 24.218804,8.92446535 C24.218804,10.131297 23.767699,11.2653564 22.9487525,12.1184257 M16.8163485,12.1184257 C15.5003881,10.7476337 15.2138139,8.70882178 15.9466455,7.04129703 L21.6918178,13.0264455 C21.1309307,13.2949604 20.5184317,13.441099 19.8825505,13.441099 C18.7242772,13.441099 17.635295,12.971198 16.8163485,12.1184257 M23.9567525,4.68050495 C22.8683406,3.5470396 21.421497,2.92268317 19.8825505,2.92268317 C18.3433188,2.92268317 16.8964752,3.5470396 15.8080634,4.68050495 C14.390305,6.15763366 13.8696238,8.21872277 14.2414574,10.1268416 L2.85091485,23.5965446 L5.68757228,26.551396 L13.5445545,19.3415941 L13.5445545,29.750703 L14.970297,29.750703 L14.970297,18.0334752 L18.5412119,14.7569406 C18.9760634,14.8644653 19.4243168,14.9262475 19.8825505,14.9262475 C21.4217822,14.9262475 22.8686257,14.3021881 23.9567525,13.1684257 C25.0451644,12.0352574 25.6445465,10.5278317 25.6445465,8.92446535 C25.6445465,7.32139604 25.0451644,5.8139703 23.9567525,4.68050495" id="Fill-2" fill="#FFFFFF"></path>
                            </g>
                        </g>
                    </g>
                </g>
            </g>
        </g>
    </g>
</svg>