<?xml version="1.0" encoding="UTF-8" standalone="no"?>
<svg width="117px" height="40px" viewBox="0 0 117 40" version="1.1" xmlns="http://www.w3.org/2000/svg" xmlns:xlink="http://www.w3.org/1999/xlink">
    <!-- Generator: Sketch 39.1 (31720) - http://www.bohemiancoding.com/sketch -->
    <title>Page 1</title>
    <desc>Created with Sketch.</desc>
    <defs>
        <polygon id="path-1" points="0.125488372 13.3234834 24.79315 13.3234834 24.79315 0.135204393 0.125488372 0.135204393 0.125488372 13.3234834"></polygon>
    </defs>
    <g id="Symbols" stroke="none" stroke-width="1" fill="none" fill-rule="evenodd">
        <g id="Navigation-Default-(Full-Web)" transform="translate(-135.000000, -20.000000)">
            <g id="Page-1" transform="translate(135.000000, 20.000000)">
                <g id="Group-3" transform="translate(34.766164, 26.583632)">
                    <mask id="mask-2" fill="white">
                        <use xlink:href="#path-1"></use>
                    </mask>
                    <g id="Clip-2"></g>
                    <path d="M4.57147866,0.135204393 L1.79115666,0.135204393 L0.125488372,2.39363138 L5.71487759,6.50846372 L6.36883108,6.00622632 C6.7776734,5.68935913 7.36908663,5.50244417 7.95020598,5.50244417 C8.30039254,5.50244417 8.81275645,5.57330966 9.26355124,5.90388652 C10.1373667,6.5474687 10.3325622,7.85008057 10.0124804,8.68752909 L9.71803629,9.457974 L15.0046297,13.323522 L24.79315,0.135204393 L22.0516729,0.135204393 L4.57147866,0.135204393 Z" id="Fill-1" fill="#FFFFFF" mask="url(#mask-2)"></path>
                </g>
                <path d="M6.43253667,22.530358 L6.43253667,21.3310514 C6.01029287,20.7714651 5.20620394,20.4715902 4.38210989,20.4715902 C3.37699872,20.4715902 2.55271045,21.0112878 2.55271045,21.9308013 C2.55271045,22.8499285 3.37699872,23.3693513 4.38210989,23.3693513 C5.20620394,23.3693513 6.01029287,23.0897512 6.43253667,22.530358 L6.43253667,22.530358 Z M6.43253667,24.8486441 L6.43253667,23.8294942 C5.76906619,24.6290963 4.62353079,25.0884668 3.35679939,25.0884668 C1.8090253,25.0884668 1.94224385e-05,24.0492351 1.94224385e-05,21.8910239 C1.94224385e-05,19.6125152 1.8090253,18.7729426 3.35679939,18.7729426 C4.66373524,18.7729426 5.78926553,19.1927289 6.43253667,19.9521674 L6.43253667,18.7327791 C6.43253667,17.7537927 5.58804907,17.1142655 4.301701,17.1142655 C3.27658472,17.1142655 2.31148377,17.51397 1.50758906,18.2531337 L0.50228367,16.4745452 C1.68841196,15.4154248 3.21618094,14.9558612 4.74414413,14.9558612 C6.97519959,14.9558612 9.00562126,15.8352111 9.00562126,18.6128677 L9.00562126,24.8486441 L6.43253667,24.8486441 Z" id="Fill-4" fill="#FFFFFF"></path>
                <path d="M10.6739893,23.5896329 L11.7793202,21.7507991 C12.5031945,22.4302967 13.9303552,23.0897126 15.1366829,23.0897126 C16.2424022,23.0897126 16.7650601,22.6699263 16.7650601,22.0705627 C16.7650601,20.4918264 11.0158242,21.7909626 11.0158242,17.9937698 C11.0158242,16.3748701 12.4229798,14.9558225 14.9960644,14.9558225 C16.6244416,14.9558225 17.930989,15.5156019 18.8958957,16.2748474 L17.8707795,18.0737107 C17.2875236,17.474154 16.1819985,16.954345 14.9960644,16.954345 C14.0713621,16.954345 13.4682954,17.3542426 13.4682954,17.8937472 C13.4682954,19.3126016 19.2375364,18.1136812 19.2375364,22.0108966 C19.2375364,23.7894851 17.7097674,25.0884282 15.0158753,25.0884282 C13.3270943,25.0884282 11.6991055,24.5288419 10.6739893,23.5896329" id="Fill-6" fill="#FFFFFF"></path>
                <path d="M21.1067519,24.8486828 L23.6600256,24.8486828 L23.6600256,15.1957225 L21.1067519,15.1957225 L21.1067519,24.8486828 Z M20.8655252,12.6376137 C20.8655252,11.7980411 21.5490008,11.1386252 22.373289,11.1386252 C23.2173882,11.1386252 23.9012522,11.7980411 23.9012522,12.6376137 C23.9012522,13.4771862 23.2173882,14.1566839 22.373289,14.1566839 C21.5490008,14.1566839 20.8655252,13.4771862 20.8655252,12.6376137 L20.8655252,12.6376137 Z" id="Fill-8" fill="#FFFFFF"></path>
                <path d="M32.0223562,22.530358 L32.0223562,21.3310514 C31.6001124,20.7714651 30.7960235,20.4715902 29.9719295,20.4715902 C28.9668183,20.4715902 28.14253,21.0112878 28.14253,21.9308013 C28.14253,22.8499285 28.9668183,23.3693513 29.9719295,23.3693513 C30.7960235,23.3693513 31.6001124,23.0897512 32.0223562,22.530358 L32.0223562,22.530358 Z M32.0223562,24.8486441 L32.0223562,23.8294942 C31.3588858,24.6290963 30.2133504,25.0884668 28.946619,25.0884668 C27.3988449,25.0884668 25.589839,24.0492351 25.589839,21.8910239 C25.589839,19.6125152 27.3988449,18.7729426 28.946619,18.7729426 C30.2535548,18.7729426 31.3790851,19.1927289 32.0223562,19.9521674 L32.0223562,18.7327791 C32.0223562,17.7537927 31.1778686,17.1142655 29.8915206,17.1142655 C28.8664043,17.1142655 27.9013033,17.51397 27.0974086,18.2531337 L26.0921032,16.4745452 C27.2782315,15.4154248 28.8060005,14.9558612 30.3339637,14.9558612 C32.5650192,14.9558612 34.5954408,15.8352111 34.5954408,18.6128677 L34.5954408,24.8486441 L32.0223562,24.8486441 Z" id="Fill-10" fill="#FFFFFF"></path>
                <path d="M41.5810897,22.830175 C43.0486491,22.830175 44.033561,21.6909206 44.033561,20.0121617 C44.033561,18.3534846 43.0486491,17.2142302 41.5810897,17.2142302 C40.7366021,17.2142302 39.812094,17.6938756 39.3698451,18.3332097 L39.3698451,21.7507798 C39.812094,22.3708045 40.7366021,22.830175 41.5810897,22.830175 L41.5810897,22.830175 Z M36.8167657,24.8485862 L36.8167657,11.5183445 L39.3698451,11.5183445 L39.3698451,16.4347099 C40.1339238,15.4356417 41.2192497,14.9558032 42.3647851,14.9558032 C44.8376499,14.9558032 46.6670493,16.8743848 46.6670493,20.0121617 C46.6670493,23.2499613 44.8176448,25.0884089 42.3647851,25.0884089 C41.1990503,25.0884089 40.1339238,24.5686 39.3698451,23.6093092 L39.3698451,24.8485862 L36.8167657,24.8485862 Z" id="Fill-11" fill="#FFFFFF"></path>
                <path d="M97.2601308,20.0121231 C97.2601308,17.0543098 99.4313652,14.9557646 102.4063,14.9557646 C104.396517,14.9557646 105.602456,15.8154189 106.245922,16.6945757 L104.577534,18.2532302 C104.115086,17.5739256 103.411605,17.2141916 102.526913,17.2141916 C100.978945,17.2141916 99.8936192,18.3333642 99.8936192,20.0121231 C99.8936192,21.690882 100.978945,22.8301364 102.526913,22.8301364 C103.411605,22.8301364 104.115086,22.4302388 104.577534,21.771016 L106.245922,23.3296705 C105.602456,24.2088273 104.396517,25.0885634 102.4063,25.0885634 C99.4313652,25.0885634 97.2601308,22.9900182 97.2601308,20.0121231" id="Fill-12" fill="#FFFFFF"></path>
                <path d="M112.02536,17.0342473 C110.437187,17.0342473 109.753905,18.1337243 109.653297,19.092629 L114.437626,19.092629 C114.357217,18.1735017 113.713752,17.0342473 112.02536,17.0342473 M106.999804,20.0121424 C106.999804,17.2142109 109.090435,14.9557839 112.02536,14.9557839 C114.940085,14.9557839 116.890292,17.1143813 116.890292,20.2519651 L116.890292,20.851715 L109.673302,20.851715 C109.854125,22.0305536 110.819226,23.0101193 112.467803,23.0101193 C113.291897,23.0101193 114.417427,22.6700808 115.040693,22.0705241 L116.186617,23.749283 C115.221516,24.6290191 113.693941,25.0883896 112.185983,25.0883896 C109.231248,25.0883896 106.999804,23.1099489 106.999804,20.0121424" id="Fill-13" fill="#FFFFFF"></path>
                <path d="M53.0778717,17.3180375 C51.5916668,17.3141756 50.3795124,18.512903 50.3758221,19.9900718 C50.3719376,21.4670475 51.5774884,22.6717607 53.0634991,22.6760088 C54.5485387,22.6798707 55.7606931,21.4815295 55.7647718,20.0047469 C55.7688505,18.527385 54.5631055,17.3218994 53.0778717,17.3180375 M53.0570897,25.1086065 C50.2214137,25.1016552 47.9217971,22.8020992 47.9293718,19.9838928 C47.9369466,17.164914 50.2491878,14.8781022 53.0842811,14.885826 C55.9191802,14.8933566 58.2195737,17.1925264 58.2123874,20.0113121 C58.2046185,22.8295185 55.8912119,25.1161372 53.0570897,25.1086065" id="Fill-14" fill="#FFFFFF"></path>
                <path d="M71.8271669,17.856789 C70.6274429,18.7293806 70.3658226,20.4089119 71.2431342,21.6008809 C72.1202515,22.79285 73.8094209,23.0531406 75.0089507,22.1813214 C76.2077036,21.309309 76.4697122,19.630357 75.5927892,18.4380018 C74.7156719,17.2454535 73.026114,16.9847767 71.8271669,17.856789 M76.4533974,24.1445077 C74.16524,25.8093638 70.9422806,25.3119538 69.2686491,23.0371138 C67.5946292,20.7618877 68.0941743,17.5578795 70.3825259,15.8937958 C72.6706834,14.229712 75.893837,14.7265428 77.5684396,17.0015758 C79.242071,19.2764158 78.7413606,22.4810032 76.4533974,24.1445077" id="Fill-15" fill="#FFFFFF"></path>
                <polygon id="Fill-16" fill="#FFFFFF" points="65.4826333 24.8486055 63.270806 21.5907242 61.0399448 24.8486055 58.2054342 24.8486055 61.6632108 19.8922697 58.4064564 15.1956452 61.2611664 15.1956452 63.270806 18.1534586 65.2612175 15.1956452 68.1161216 15.1956452 64.8795666 19.8922697 68.3369548 24.8486055"></polygon>
                <path d="M92.7986609,24.8477173 L95.3513519,24.8477173 L95.3513519,15.1961087 L92.7986609,15.1961087 L92.7986609,24.8477173 Z M92.5578226,12.638386 C92.5578226,11.7991997 93.2409098,11.1397838 94.0650038,11.1397838 C94.9092972,11.1397838 95.5925786,11.7991997 95.5925786,12.638386 C95.5925786,13.4775724 94.9092972,14.15707 94.0650038,14.15707 C93.2409098,14.15707 92.5578226,13.4775724 92.5578226,12.638386 L92.5578226,12.638386 Z" id="Fill-17" fill="#FFFFFF"></path>
                <path d="M90.564323,13.3975156 C90.9061579,13.3975156 91.1877833,13.4575679 91.3886113,13.5973679 L91.9114633,11.7189498 C91.4490151,11.4791271 90.8055497,11.3192453 90.0616703,11.3192453 C88.1926491,11.3192453 86.8053044,12.5382475 86.8053044,14.7962883 L86.8053044,15.1965721 L85.4818594,15.1965721 L85.3934873,15.1965721 L83.5114531,15.1965721 L83.5114531,14.7962883 C83.5114531,13.8570793 83.9942949,13.3975156 84.7177807,13.3975156 C85.180229,13.3975156 85.5220639,13.5373157 85.7834899,13.7771384 L86.7482024,12.2383726 C86.1655293,11.5791498 85.1602239,11.3192453 84.2153223,11.3192453 C82.2656979,11.3192453 80.9589563,12.6181884 80.9589563,14.7962883 L80.9589563,15.1965721 L79.3509727,15.1965721 L79.3509727,17.4142562 L80.9589563,17.4142562 L80.9589563,24.846636 L83.5114531,24.846636 L83.5114531,17.4142562 L85.3934873,17.4142562 L85.4818594,17.4142562 L86.8053044,17.4142562 L86.8053044,24.846636 L89.3579954,24.846636 L89.3579954,17.4142562 L91.3291786,17.4142562 L91.3291786,15.1965721 L89.3579954,15.1965721 L89.3579954,14.7962883 C89.3579954,13.8570793 89.840643,13.3975156 90.564323,13.3975156" id="Fill-18" fill="#FFFFFF"></path>
                <path d="M52.2539525,13.395353 L52.7389307,13.395353 L66.7230861,13.395353 L69.4981641,13.395353 L71.325427,10.92935 L65.9562883,6.98212321 L65.2928178,7.58264543 C64.849792,7.98524634 64.3632599,8.18857429 63.8468173,8.18857429 C63.3680542,8.18857429 62.8721993,8.00996237 62.4138298,7.67282031 C61.95177,7.33316803 60.9522913,6.38333883 61.654024,4.90829405 L62.0376172,4.10096819 L56.4441492,-0.00015447517 L46.4386803,13.395353 L52.2539525,13.395353 Z" id="Fill-19" fill="#FFFFFF"></path>
            </g>
        </g>
    </g>
</svg>