<?xml version="1.0" encoding="UTF-8"?>
<svg width="117px" height="40px" viewBox="0 0 117 40" version="1.1" xmlns="http://www.w3.org/2000/svg" xmlns:xlink="http://www.w3.org/1999/xlink">
    <!-- Generator: Sketch 40.1 (33804) - http://www.bohemiancoding.com/sketch -->
    <title>Page 1</title>
    <desc>Created with Sketch.</desc>
    <defs>
        <polygon id="path-1" points="0 39.8 116.4 39.8 116.4 -7.10542736e-15 0 -7.10542736e-15"></polygon>
    </defs>
    <g id="Event---Seated" stroke="none" stroke-width="1" fill="none" fill-rule="evenodd">
        <g id="Event-Seated-00-(Full-Web)" transform="translate(-135.000000, -20.000000)">
            <g id="Page-1" transform="translate(135.000000, 20.000000)">
                <path d="M34.7,28.9 L40.3,33 L41,32.5 C41.4,32.2 42,32 42.6,32 C42.9,32 43.5,32.1 43.9,32.4 C44.8,33 45,34.3 44.6,35.2 L44.2,36 L49.5,39.8 L59.2,26.5 L36.3,26.5 L34.7,28.9 L34.7,28.9 Z" id="Fill-1" fill="#FFFFFF"></path>
                <path d="M6.3,22.5 C6,23.1 5.1,23.3 4.3,23.3 C3.3,23.3 2.5,22.8 2.5,21.9 C2.5,21 3.3,20.4 4.3,20.4 C5.1,20.4 6,20.7 6.3,21.3 L6.3,22.5 Z M4.6,14.9 C3.1,14.9 1.6,15.4 0.4,16.4 L1.4,18.2 C2.2,17.5 3.1,17.1 4.2,17.1 C5.5,17.1 6.3,17.7 6.3,18.7 L6.3,19.9 C5.6,19.1 4.6,18.7 3.3,18.7 C1.8,18.7 0,19.5 0,21.8 C0,24 1.8,25 3.3,25 C4.6,25 5.7,24.5 6.3,23.7 L6.3,24.7 L8.9,24.7 L8.9,18.5 C8.9,15.8 6.9,14.9 4.6,14.9 L4.6,14.9 Z" id="Fill-3" fill="#FFFFFF"></path>
                <path d="M13.3,17.9 C13.3,17.4 13.9,17 14.8,17 C16,17 17.1,17.5 17.7,18.1 L18.7,16.3 C17.7,15.5 16.4,15 14.8,15 C12.2,15 10.8,16.4 10.8,18 C10.8,21.8 16.5,20.5 16.5,22.1 C16.5,22.7 16,23.1 14.9,23.1 C13.7,23.1 12.3,22.4 11.6,21.8 L10.5,23.6 C11.5,24.5 13.1,25.1 14.8,25.1 C17.5,25.1 19,23.8 19,22 C19.1,18.1 13.3,19.3 13.3,17.9" id="Fill-5" fill="#FFFFFF"></path>
                <path d="M22.2,11.1 C21.4,11.1 20.7,11.8 20.7,12.6 C20.7,13.4 21.4,14.1 22.2,14.1 C23,14.1 23.7,13.4 23.7,12.6 C23.7,11.8 23,11.1 22.2,11.1" id="Fill-7" fill="#FFFFFF"></path>
                <mask id="mask-2" fill="white">
                    <use xlink:href="#path-1"></use>
                </mask>
                <g id="Clip-10"></g>
                <polygon id="Fill-9" fill="#FFFFFF" mask="url(#mask-2)" points="21 24.8 23.4 24.8 23.4 15.1 21 15.1"></polygon>
                <path d="M31.9,22.5 C31.4,23.1 30.7,23.3 29.8,23.3 C28.8,23.3 28,22.8 28,21.9 C28,21 28.8,20.4 29.8,20.4 C30.6,20.4 31.4,20.7 31.9,21.3 L31.9,22.5 Z M30.1,14.9 C28.6,14.9 27.1,15.4 25.9,16.4 L26.9,18.2 C27.7,17.5 28.7,17.1 29.7,17.1 C31,17.1 31.9,17.7 31.9,18.7 L31.9,19.9 C31.2,19.1 30.1,18.7 28.8,18.7 C27.3,18.7 25.4,19.5 25.4,21.8 C25.4,24 27.2,25 28.8,25 C30.1,25 31.2,24.5 31.9,23.7 L31.9,24.7 L34.3,24.7 L34.3,18.5 C34.3,15.8 32.3,14.9 30.1,14.9 L30.1,14.9 Z" id="Fill-11" fill="#FFFFFF" mask="url(#mask-2)"></path>
                <path d="M39.1,18.3 C39.6,17.7 40.5,17.2 41.3,17.2 C42.8,17.2 43.8,18.3 43.8,20 C43.8,21.7 42.8,22.8 41.3,22.8 C40.5,22.8 39.5,22.3 39.1,21.7 L39.1,18.3 Z M39.1,23.6 C40,24.6 40.9,25.1 42.1,25.1 C44.5,25.1 46.4,23.3 46.4,20 C46.4,16.9 44.6,14.9 42.1,14.9 C41,14.9 40,15.4 39.1,16.4 L39.1,11.4 L36.6,11.4 L36.6,24.7 L39.1,24.7 L39.1,23.6 Z" id="Fill-12" fill="#FFFFFF" mask="url(#mask-2)"></path>
                <path d="M101.8,25.1 C103.8,25.1 105,24.2 105.6,23.3 L103.9,21.7 C103.4,22.4 102.7,22.8 101.9,22.8 C100.4,22.8 99.3,21.7 99.3,20 C99.3,18.3 100.4,17.2 101.9,17.2 C102.8,17.2 103.5,17.6 103.9,18.2 L105.6,16.6 C105,15.7 103.8,14.9 101.8,14.9 C98.8,14.9 96.7,17 96.7,20 C96.7,23 98.9,25.1 101.8,25.1" id="Fill-13" fill="#FFFFFF" mask="url(#mask-2)"></path>
                <path d="M109,19.2 C109.1,18.1 109.8,17.1 111.4,17.1 C113.1,17.1 113.7,18 113.8,19.2 L109,19.2 Z M111.5,14.9 C108.6,14.9 106.4,17.2 106.4,20 C106.4,23.1 108.6,25.1 111.6,25.1 C113.1,25.1 114.6,24.6 115.6,23.8 L114.5,22.1 C113.9,22.7 112.8,23 111.9,23 C110.3,23 109.3,22 109.1,20.8 L116.4,20.8 L116.4,20.2 C116.4,17.1 114.4,14.9 111.5,14.9 L111.5,14.9 Z" id="Fill-14" fill="#FFFFFF" mask="url(#mask-2)"></path>
                <path d="M55.4,20 C55.4,21.5 54.2,22.7 52.7,22.7 C51.2,22.7 50,21.5 50,20 C50,18.5 51.2,17.3 52.7,17.3 C54.2,17.3 55.4,18.5 55.4,20 M47.6,20 C47.6,22.8 49.9,25.1 52.7,25.1 C55.5,25.1 57.8,22.8 57.8,20 C57.8,17.2 55.5,14.9 52.7,14.9 C49.9,14.9 47.6,17.1 47.6,20" id="Fill-15" fill="#FFFFFF" mask="url(#mask-2)"></path>
                <path d="M74.6,22.2 C73.4,23.1 71.7,22.8 70.9,21.6 C70,20.4 70.3,18.7 71.5,17.9 C72.7,17 74.4,17.3 75.2,18.5 C76,19.6 75.8,21.3 74.6,22.2 M70,15.9 C67.7,17.6 67.2,20.8 68.9,23 C70.6,25.3 73.8,25.8 76,24.1 C78.3,22.4 78.8,19.2 77.1,17 C75.5,14.7 72.2,14.2 70,15.9" id="Fill-16" fill="#FFFFFF" mask="url(#mask-2)"></path>
                <polygon id="Fill-17" fill="#FFFFFF" mask="url(#mask-2)" points="67.7 15.1 64.9 15.1 62.9 18.1 60.9 15.1 58.1 15.1 61.3 19.8 57.9 24.8 60.7 24.8 62.9 21.5 65.1 24.8 67.9 24.8 64.5 19.8"></polygon>
                <path d="M93.5,14.1 C94.3,14.1 95,13.4 95,12.6 C95,11.8 94.3,11.1 93.5,11.1 C92.7,11.1 92,11.8 92,12.6 C92,13.5 92.7,14.1 93.5,14.1" id="Fill-18" fill="#FFFFFF" mask="url(#mask-2)"></path>
                <polygon id="Fill-19" fill="#FFFFFF" mask="url(#mask-2)" points="92.1 24.8 94.9 24.8 94.9 15.1 92.1 15.1"></polygon>
                <path d="M86.3,14.8 L86.3,15.1 L85,15.1 L84.9,15.1 L83.1,15.1 L83.1,14.8 C83.1,13.9 83.5,13.4 84.3,13.4 C84.8,13.4 85.1,13.5 85.3,13.8 L86.2,12.3 C85.6,11.6 84.6,11.4 83.7,11.4 C81.8,11.4 80.5,12.7 80.5,14.9 L80.5,15.2 L78.9,15.2 L78.9,17.5 L80.5,17.5 L80.5,24.9 L83.1,24.9 L83.1,17.5 L84.9,17.5 L85,17.5 L86.3,17.5 L86.3,24.9 L88.9,24.9 L88.9,17.5 L90.7,17.5 L90.7,15.2 L88.9,15.2 L88.9,14.9 C88.9,14 89.4,13.5 90.1,13.5 C90.4,13.5 90.7,13.6 90.9,13.7 L91.4,11.8 C90.9,11.6 90.3,11.4 89.5,11.4 C87.7,11.3 86.3,12.5 86.3,14.8" id="Fill-20" fill="#FFFFFF" mask="url(#mask-2)"></path>
                <path d="M70.9,11 L65.6,7 L64.9,7.6 C64.5,8 64,8.2 63.5,8.2 C63,8.2 62.5,8 62.1,7.7 C61.6,7.4 60.6,6.4 61.3,4.9 L61.7,4.1 L56.1,0 L46.1,13.5 L69,13.5 L70.9,11 Z" id="Fill-21" fill="#FFFFFF" mask="url(#mask-2)"></path>
                <path d="M93.1,32.8 C92.6,32.8 92.2,33.2 92.2,33.7 C92.2,34.2 92.6,34.6 93.1,34.6 C93.6,34.6 94,34.2 94,33.7 C94,33.2 93.6,32.8 93.1,32.8" id="Fill-22" fill="#FFFFFF" mask="url(#mask-2)"></path>
                <path d="M98,30.1 C98.5,30.1 98.9,30.3 99.2,30.7 L100.2,29.8 C99.8,29.3 99.1,28.8 98,28.8 C96.3,28.8 95,30 95,31.8 C95,33.5 96.3,34.8 98,34.8 C99.2,34.8 99.9,34.3 100.2,33.8 L99.2,32.9 C98.9,33.3 98.5,33.5 98,33.5 C97.1,33.5 96.5,32.8 96.5,31.8 C96.5,30.8 97.1,30.1 98,30.1" id="Fill-23" fill="#FFFFFF" mask="url(#mask-2)"></path>
                <path d="M103.8,33.4 C102.9,33.4 102.4,32.6 102.4,31.7 C102.4,30.8 102.9,30.1 103.8,30.1 C104.7,30.1 105.3,30.9 105.3,31.7 C105.2,32.6 104.7,33.4 103.8,33.4 M103.8,28.8 C101.9,28.8 100.8,30.2 100.8,31.8 C100.8,33.4 101.9,34.8 103.8,34.8 C105.7,34.8 106.8,33.4 106.8,31.8 C106.8,30.1 105.6,28.8 103.8,28.8" id="Fill-24" fill="#FFFFFF" mask="url(#mask-2)"></path>
                <path d="M114.7,28.8 C113.8,28.8 113.1,29.3 112.8,29.8 C112.6,29.2 112.1,28.8 111.2,28.8 C110.3,28.8 109.6,29.3 109.4,29.7 L109.4,28.9 L107.9,28.9 L107.9,34.6 L109.4,34.6 L109.4,30.8 C109.6,30.5 110.1,30.1 110.6,30.1 C111.2,30.1 111.4,30.5 111.4,31 L111.4,34.5 L112.8,34.5 L112.8,30.7 C113.1,30.4 113.4,30 114,30 C114.6,30 114.8,30.4 114.8,30.9 L114.8,34.4 L116.3,34.4 L116.3,30.3 C116.4,29.3 115.8,28.8 114.7,28.8" id="Fill-25" fill="#FFFFFF" mask="url(#mask-2)"></path>
            </g>
        </g>
    </g>
</svg>