<?xml version="1.0" encoding="UTF-8" standalone="no"?>
<svg width="50px" height="50px" viewBox="0 0 50 50" version="1.1" xmlns="http://www.w3.org/2000/svg" xmlns:xlink="http://www.w3.org/1999/xlink">
    <!-- Generator: Sketch 39.1 (31720) - http://www.bohemiancoding.com/sketch -->
    <title>Group 2</title>
    <desc>Created with Sketch.</desc>
    <defs></defs>
    <g id="Symbols" stroke="none" stroke-width="1" fill="none" fill-rule="evenodd">
        <g id="Navigation-Region-Select---Dropdown-v4b-(Full-Web)" transform="translate(-317.000000, -121.000000)">
            <g id="Group-2" transform="translate(317.000000, 121.000000)">
                <ellipse id="Oval-8" fill="#FFFFFF" cx="25" cy="24.8344371" rx="25" ry="24.8344371"></ellipse>
                <g id="Group" fill="#999999">
                    <path d="M3.48814203,13.9514461 C3.40952568,13.7263038 3.3307714,13.5011615 3.25215505,13.2760191 C3.18057279,13.2846077 3.10899053,13.2931962 3.03740828,13.301662 C2.90996703,13.518952 2.78238786,13.7361193 2.6548087,13.9534092 C2.68832409,14.0053085 2.72183948,14.0573305 2.75535487,14.1093525 C2.99961726,14.056717 3.24387964,14.0042043 3.48814203,13.9514461" id="Fill-1"></path>
                    <path d="M2.23687826,15.9235107 C2.09070435,16.0633014 1.99061739,16.2505811 1.87331304,16.411267 C2.36409565,16.5520938 2.75522609,16.6696077 3.14948696,16.7762423 C3.6767913,16.9188823 4.11096522,16.6507848 3.91366087,16.285464 C3.68548696,15.8630701 3.45418261,15.4435254 3.2314,15.0162098 C3.09331304,14.7513933 2.6827913,14.6265402 2.33313913,14.3988515 C2.25905217,14.6949245 1.90757391,14.8709795 2.24331304,15.1636851 C2.58209565,15.4591536 2.56192174,15.6128457 2.23687826,15.9235107" id="Fill-3"></path>
                    <g id="Group-7" transform="translate(0.000000, 0.028407)">
                        <path d="M41.5994,42.3311562 C40.2021826,43.1408023 38.7962696,43.9359425 37.4083565,44.7613031 C36.9085304,45.0584122 36.3934,45.2334312 35.7923565,45.2256602 C35.6787043,44.9637794 35.7089652,44.7432573 35.961313,44.5635758 C36.6903565,44.0450811 37.3934,43.4851414 38.155487,43.0201799 C38.4523565,42.8391169 38.8777478,42.8549179 39.2480087,42.8055292 C39.9299217,42.7144365 40.2911391,42.3517061 40.3422696,41.6763247 C40.3509652,41.5616601 40.3577478,41.4466501 40.3641826,41.3318128 C40.403487,40.6278516 40.4220957,40.6129141 41.2123565,40.6867381 C41.2264435,40.9759899 41.2407043,41.2714585 41.2579217,41.6278858 C41.7144435,41.4911172 41.8420087,41.7515301 41.9445304,42.0944015 C41.8321826,42.1721109 41.7210522,42.2606997 41.5994,42.3311562 M33.7227913,42.9239066 C32.9119217,42.9240793 32.1009652,42.8765038 31.2900087,42.8758994 C30.9891391,42.8757267 30.8475739,42.7431026 30.7415739,42.4932236 C30.5227043,41.9769739 30.2828783,41.4697039 30.0630522,40.9540586 C29.9727043,40.7424299 29.8547043,40.6547045 29.6038348,40.6713689 C28.9247913,40.7167857 28.2400087,40.6923504 27.5642696,40.7608211 C27.1549652,40.8022661 26.7526174,40.9486189 26.3567043,41.0768395 C25.5612261,41.3339714 24.7722696,41.6110487 23.9780087,41.8810459 C23.8546174,41.5018238 23.9387913,41.2212064 24.2352261,41.0130314 C24.5207043,40.8127137 24.6174,40.5466021 24.6194,40.1996726 C24.6242696,39.3374432 24.6498348,38.4743503 24.7032261,37.6137614 C24.7143565,37.434857 24.8447043,37.2244371 24.9844435,37.0991522 C25.433313,36.6964446 25.9322696,36.3998536 26.5885304,36.4925869 C26.7118348,36.5100283 26.889487,36.4024439 26.9870522,36.3005582 C27.405313,35.8640038 27.8603565,35.445927 28.1940087,34.9495364 C28.6325304,34.2969498 29.2201826,34.1908332 29.8520957,34.2637074 C29.9851391,34.4274153 30.0919217,34.6608026 30.1927913,34.6582987 C30.3358348,34.6547586 30.4818348,34.4857837 30.6118348,34.3709464 C30.6851391,34.3061885 30.7186174,34.1987768 30.7872261,34.1266797 C31.1287913,33.7680075 31.2227043,33.1456412 31.963487,33.2245595 C32.4988783,33.2815464 33.0286174,33.2451956 33.4751391,33.618978 C33.6268783,33.7459898 33.8140957,33.8315565 33.9888783,33.9383639 C33.7219217,34.3832936 33.381487,34.6085646 32.8811391,34.3593763 C32.6678348,35.1748938 32.8317478,35.4254635 33.5866174,35.5260541 C34.4628783,35.6427046 34.4582696,35.6422729 34.5516609,34.7892822 C34.6001826,34.3462521 34.6669652,33.9052942 34.7286174,33.4638182 C34.7342696,33.4237547 34.7627043,33.3868859 34.7818348,33.3457862 C35.1549652,33.267127 35.3834,33.3553704 35.6343565,33.7048038 C36.1170522,34.3767314 36.2023565,35.1046962 36.175313,35.8716021 C36.1615739,36.258077 36.2797478,36.5500055 36.6126174,36.737717 C37.271487,37.1091681 37.4972261,37.7222092 37.5792261,38.4146867 C37.593313,38.5341002 37.5601826,38.6649111 37.5250522,38.7834612 C37.2205304,39.8096575 36.587313,40.6039344 35.7739217,41.2867413 C35.2328783,41.7410825 34.7420957,42.2538785 34.2111391,42.7207396 C34.0844435,42.8322094 33.8874,42.9237339 33.7227913,42.9239066 M32.8955739,44.3761233 C32.4202696,44.6891197 31.9526174,44.6167636 31.3718348,44.472224 C31.689313,44.1209773 31.9120957,43.7553113 32.2380087,43.555339 C32.4604435,43.4189157 32.8275739,43.500856 33.1280957,43.5182111 C33.1792261,43.5210605 33.2440957,43.6866679 33.2620087,43.7844955 C33.3171391,44.0848856 33.1364435,44.2175961 32.8955739,44.3761233 M21.8176609,31.7734652 C21.9849652,31.7466986 22.1466174,31.7207954 22.3220957,31.69282 C21.9746174,31.3388103 21.6343565,31.0334122 21.3427913,30.6875189 C20.5101826,29.6996592 19.6972261,28.6953942 18.8576609,27.6746375 C19.0323565,27.5259534 19.1821826,27.3985963 19.3539217,27.2524162 C20.0356609,27.8625217 20.7165304,28.4392984 21.3528783,29.061233 C21.5390522,29.2430731 21.5650522,29.577569 21.7282696,29.7949828 C21.8287913,29.9287294 22.0451391,30.0319966 22.2180087,30.046157 C22.647487,30.0814716 23.0819217,30.057727 23.5607043,30.057727 C23.5823565,30.2867972 23.6032261,30.5069739 23.6291391,30.7812019 C23.3580087,30.8160848 23.1102696,30.8478594 22.8009652,30.8875775 C22.8219217,31.0931622 22.8454,31.3229231 22.8738348,31.6025907 C23.8251391,31.5107209 24.7331391,31.4763561 25.4084435,32.2577677 C24.9132261,32.2577677 24.4180087,32.268647 23.9234,32.2549183 C23.3455739,32.238772 22.7685304,32.1911102 22.1906174,32.1770362 C21.9116609,32.170215 21.8025304,32.0496791 21.8176609,31.7734652 M24.0668783,28.4916228 C24.5920087,28.2182582 25.1316609,27.9638893 25.6227043,27.6382004 C25.867487,27.4757877 26.0131391,27.1690944 26.2136609,26.9362251 C26.2970522,26.83952 26.4067043,26.765178 26.5043565,26.6805611 C26.5760957,26.7702723 26.659313,26.853335 26.7177478,26.9509899 C26.9936609,27.4117206 27.1462696,27.90129 27.0240087,28.4229794 C27.1318348,29.1305671 26.8298348,29.646126 26.4812261,30.2333504 C26.1259217,30.8313677 25.7220957,30.7868143 25.1948783,30.8484638 C24.453313,30.9352393 24.0010522,30.6106729 23.7132261,30.0198221 C23.5906174,29.7682162 23.6490522,29.4351017 23.5914,29.1455909 C23.5109652,28.7420198 23.7941826,28.6336583 24.0668783,28.4916228 M28.1327043,32.2032847 C27.7740957,32.471555 27.487313,32.6859467 27.2005304,32.9003384 C27.1657478,32.8563894 27.1307913,32.812354 27.0960087,32.7683187 C27.2148783,32.2697695 27.5418348,32.0508015 28.1327043,32.2032847 M28.4061826,29.5279213 C28.4061826,30.095891 28.421313,30.6544492 28.3934,31.2107625 C28.3878348,31.3211962 28.217487,31.4236 28.0899217,31.5669307 C27.8830522,31.2174109 28.1483565,30.7356124 27.5600087,30.7157533 L27.5600087,31.56624 L27.1168783,31.56624 C26.9364435,30.197086 27.0115739,29.8032718 28.4061826,29.5279213 M28.4762696,32.6129862 C28.6661826,32.4915867 28.8661826,32.3751089 29.0781826,32.3024074 C29.2242696,32.252328 29.4762696,32.2095878 29.5422696,32.2843616 C29.7154,32.4805347 29.5101826,32.5414071 29.3472261,32.6213615 C29.0776609,32.7535539 28.8256609,32.9209746 28.5247913,33.0977204 C28.4344435,33.0001519 28.3176609,32.9299543 28.3160957,32.8575119 C28.3145304,32.7752262 28.3980087,32.6630656 28.4762696,32.6129862 M31.6897478,29.4604005 C31.7989652,29.3841589 32.0097478,29.2934978 32.0744435,29.341764 C32.2595739,29.4794824 32.6252261,29.4711071 32.5664435,29.8494657 C32.5447043,29.98917 32.5482696,30.1327598 32.5334,30.3955904 C32.8980087,30.309851 33.237487,30.2949135 33.5068783,30.1507193 C33.8550522,29.964303 34.1407043,29.9763048 34.4782696,30.1439845 C35.0595739,30.4324592 35.647487,30.7126449 36.2510522,30.9502631 C36.5407913,31.0644097 36.6590522,31.2311396 36.6686174,31.5158152 C36.673487,31.6593186 36.6987913,31.8030811 36.6935739,31.9459801 C36.6791391,32.3426436 36.7225304,32.6815432 37.2829652,32.5781033 L37.2829652,32.9684637 C37.2534,32.9846963 37.2414,32.9960937 37.2280087,32.9979069 C36.2307913,33.1379566 36.2205304,33.1294086 36.1915739,32.1605445 C36.1894,32.090606 36.1794,32.0210129 36.1628783,31.8390865 C35.8880957,31.9209404 35.5506174,31.9180911 35.423313,32.0792086 C35.0734,32.521548 34.6332261,32.6101368 34.1260957,32.6012434 C33.8691391,32.5966672 33.6120957,32.60038 33.3239217,32.60038 L33.3239217,32.0093565 C33.4798348,31.9167096 33.6129652,31.8376186 33.7460957,31.7584413 C33.6272261,31.6196005 33.5346174,31.4120299 33.3841826,31.355302 C32.9855739,31.2048911 32.5667043,31.0955798 32.1472261,31.0141576 C31.5521826,30.8986295 31.3216609,30.7385481 30.9835739,30.0189587 C31.1916609,29.851797 31.4302696,29.6413771 31.6897478,29.4604005 M48.2260957,15.8004621 C46.513313,11.4856886 43.7809652,7.91433534 40.0732261,5.1041029 C36.9757478,2.75624164 33.4987043,1.21025548 29.6601826,0.485399075 C27.1489652,0.011198794 24.6267043,-0.0562357325 22.0884435,0.222654819 C18.7602696,0.588407257 15.6538348,1.62522389 12.7334,3.23337761 C12.4051391,3.41400889 12.0936609,3.62486051 11.7744435,3.82172443 C11.7796609,3.86558709 11.7847913,3.9095361 11.7900087,3.95331242 C12.3785304,3.70921843 12.7985304,4.02532317 13.2066174,4.31949657 C13.8810522,4.8056123 14.6117478,4.99833172 15.4439217,4.91734121 C15.9607043,4.86700276 16.4904435,4.94842499 17.0072261,4.89834557 C17.7449652,4.82676654 18.3396609,5.03485515 18.901487,5.51907132 C19.5420957,6.07141276 19.619313,6.0253915 20.2247043,5.44075747 C20.4326174,5.24009442 20.6907043,4.94799327 20.9285304,4.94540295 C21.9107913,4.93469632 22.893313,5.00031763 23.8124435,5.43307287 C24.0903565,5.56397011 24.4140957,5.64401083 24.7216609,5.66067519 C27.2680087,5.79830725 29.8164435,5.90278327 32.3624435,6.04732283 C33.0619217,6.08712734 33.7801826,6.03834308 34.4455739,6.37560205 C34.9730522,6.64292253 35.5320087,6.84842083 36.0751391,7.08552097 C36.1734,7.12834751 36.2627913,7.19120581 36.4319217,7.28834261 C35.6031391,7.72930052 34.8697478,7.1683247 34.1288783,7.28540692 C33.9020087,7.77566716 34.5543565,7.74233844 34.6161826,8.09790231 C34.3691391,8.16343727 34.1231391,8.22862686 33.8686174,8.29614773 C33.8475739,8.46408646 33.8285304,8.61734675 33.8052261,8.80419479 C33.2187043,8.85341077 32.641487,8.90193599 31.9370522,8.96108151 C32.3320087,9.33028771 32.6094,9.61867608 32.9174,9.87010929 C33.271487,10.1591021 33.5037478,10.5075857 33.5277478,10.9611499 C33.5377478,11.1497248 33.5300957,11.4110875 33.4156609,11.5187583 C33.2045304,11.7169173 32.9326174,11.7757175 32.6540957,11.5201398 C32.2400087,11.1403133 31.8120087,10.7664445 31.3467043,10.4534482 C30.9159217,10.1636783 30.9000087,9.77521743 30.9727043,9.36119879 C31.0078348,9.1604494 31.139313,8.96246302 31.269313,8.7955604 C31.4365304,8.58065063 31.387313,8.40088278 31.1936609,8.29105344 C31.0810522,8.22715901 30.8652261,8.2251731 30.7561826,8.29208957 C30.1904435,8.63979615 29.649487,9.02713454 29.0872261,9.38062615 C28.9385304,9.47405017 28.7342696,9.56419312 28.5732261,9.53984417 C27.8595739,9.43191439 27.0739217,9.61047341 26.4669652,8.99017938 C26.2737478,9.24912451 26.1047043,9.46083957 25.9520087,9.68352029 C25.5990522,10.1982158 25.835313,10.6868355 26.471487,10.7673943 C27.103487,10.8476077 27.7364435,10.9204819 28.3671391,11.0098478 C28.5024435,11.0290161 28.6669652,11.0700294 28.753487,11.1613812 C29.059487,11.4842207 29.337313,11.8332225 29.6498348,12.2005291 C29.5577478,12.3063003 29.4718348,12.4047322 29.3067043,12.5943433 C29.0561826,12.2803108 28.8429652,12.0129903 28.6417478,11.76078 C28.2439217,11.9756898 28.2150522,12.1903405 28.4699217,12.4747571 C28.611313,12.6325936 28.8030522,12.8232408 28.8114,13.006376 C28.8334,13.4885199 28.7676609,13.974722 28.7341826,14.5004695 C28.2829652,14.5004695 27.8787913,14.5177383 27.4767913,14.4947708 C27.1696609,14.477243 27.0760957,14.5751569 27.0131391,14.8886714 C26.8789652,15.5559364 27.0835739,15.9805754 27.7207913,16.2207839 C27.8808783,16.2810519 28.0399217,16.37249 28.1663565,16.4861185 C28.403313,16.6993014 28.6160957,16.9389918 28.8582696,17.1873166 C28.3827043,17.4419446 28.0526174,17.4245031 27.6822696,17.1086574 C27.057487,16.5755707 26.3967913,16.0768487 25.7085304,15.6279472 C25.4750522,15.475723 25.1116609,15.4877248 24.8108783,15.5006764 C24.7606174,15.502835 24.7166174,15.8932818 24.6900957,16.1066373 C24.6726174,16.2481549 24.7036609,16.3949394 24.6918348,16.5376657 C24.6641826,16.87173 24.7500957,17.1425905 25.0065304,17.3865118 C25.4552261,17.8131367 25.869313,18.2755079 26.3040957,18.7169838 C26.7982696,19.2189868 26.6587043,19.8631117 26.7078348,20.4642375 C26.7112261,20.5058552 26.6489652,20.5601654 26.6068783,20.5967752 C26.159313,20.984459 25.7124435,21.3586731 25.1122696,21.5208268 C24.6156609,21.6550051 24.1395739,21.8644752 23.7047913,22.0223118 C23.5546174,22.389532 24.1446174,22.8677905 23.3218348,23.0818368 C23.2282696,22.7393972 23.1420087,22.410859 23.0468783,22.0849974 C23.025487,22.0118641 22.9900957,21.9224983 22.9320087,21.8834709 C22.4604435,21.5668481 21.8725304,21.8389175 21.8508783,22.4017929 C21.8291391,22.9676903 21.8702696,23.5136423 22.4816609,23.8359638 C22.7701826,23.9880152 23.0077478,24.2378079 23.2617478,24.4512499 C23.4843565,24.6383569 23.6517478,25.3798777 23.5214,25.5600772 C23.011313,26.2653336 22.1185304,26.2854517 21.5681826,25.6156827 C21.3162696,25.3091621 21.0374,25.0246592 20.7552261,24.712958 C20.4047043,25.4328928 20.4263565,25.6130924 20.8490522,26.2014392 C21.4459217,27.0322394 22.0304435,27.8717604 22.6263565,28.7032515 C22.7987043,28.9436327 22.8843565,29.1733936 22.6340957,29.4528022 C21.7738348,28.6336583 20.9292261,27.8100246 20.059487,27.0136755 C19.8100087,26.7852098 19.7261826,26.5519088 19.7363565,26.2270833 C19.7580087,25.5370234 19.7565304,24.8454094 19.7332261,24.1554359 C19.7277478,23.9929368 19.637487,23.7932236 19.5186174,23.6814083 C18.9512261,23.1475445 18.3660957,22.6317265 17.7740087,22.1247155 C17.6380957,22.0082377 17.4577478,21.9050568 17.2843565,21.8768224 C16.8421826,21.804898 16.383487,21.703703 15.9484435,21.7553366 C15.5077478,21.8077473 14.9299217,21.9072154 14.6950522,22.2056197 C14.3401826,22.6565935 14.1846174,23.2856946 14.0306174,23.8617806 C13.8943565,24.3718999 13.9103565,24.9207012 13.793313,25.4378144 C13.7135739,25.7904426 13.5577478,26.1399624 13.369313,26.4510592 C13.1027913,26.8908946 12.683313,26.855839 12.3963565,26.4047789 C12.1488783,26.0158863 11.9027913,25.6259576 11.6618348,25.2330068 C11.1041826,24.3233747 10.4426174,23.4757373 10.7406174,22.2650242 C10.8932261,21.6447302 10.3898348,21.1418638 9.72722609,21.0518072 C8.10748696,20.8316304 6.47635652,20.6785428 4.8694,20.3904135 C4.27096522,20.2830881 3.69766087,19.9195806 3.17513913,19.5788679 C3.00392174,19.4672253 3.02992174,19.0584737 2.96348696,18.7861452 C2.95722609,18.7605875 2.9347913,18.7390015 2.91887826,18.7161204 C2.25713913,18.6188972 2.2567913,18.6190699 2.24235652,19.2574962 C2.2394,19.3870119 2.20218261,19.5303427 2.24548696,19.642676 C2.30861739,19.8066429 2.39505217,20.008083 2.53348696,20.0886418 C3.00722609,20.364424 3.49705217,20.6197427 4.0014,20.8354295 C4.63392174,21.1060311 5.28792174,21.3270713 5.93009565,21.5760005 C6.07444348,21.6319513 6.30853043,21.6953277 6.32713913,21.7892698 C6.37287826,22.0205849 6.4327913,22.2705502 6.13583478,22.468882 C5.10357391,23.1580784 4.09018261,23.8758546 3.08113913,24.5986388 C2.46705217,25.0384742 1.4674,24.9842503 1.00313913,24.4089414 C0.860095652,24.2315912 0.811313043,23.9381949 0.810182609,23.697641 C0.80766087,23.1792326 0.508617391,22.8718486 0.142356522,22.5490091 C-0.0870347826,23.9120327 -0.0599913043,24.1746906 0.377052174,24.9529075 C0.718356522,25.5608543 1.10574783,25.7312971 1.80235652,25.5839081 C2.39713913,25.4581915 2.98922609,25.3154652 3.58896522,25.2205733 C3.83670435,25.1814596 4.10131304,25.2476853 4.35835652,25.2659902 C4.36713913,25.3182282 4.37583478,25.3702935 4.38461739,25.4225315 C4.10453043,25.8216127 3.82983478,26.2246657 3.54331304,26.6191706 C2.70748696,27.7702201 2.0034,29.0282496 0.868965217,29.9390906 C0.623573913,30.1361272 0.60566087,30.326429 0.678704348,30.6126588 C1.27905217,32.9670822 2.16670435,35.1988973 3.39966087,37.3037871 C4.57366087,39.3082589 6.00026957,41.1112043 7.67435652,42.7126232 C9.41253043,44.3750872 11.3627913,45.7569338 13.5124435,46.8665383 C15.7942696,48.044527 18.1975739,48.8641026 20.7241826,49.2828702 C24.073313,49.8377156 27.4200957,49.7771022 30.7347043,48.9808395 C34.2750522,48.1305255 37.479487,46.5972319 40.3519217,44.3623947 C42.7391391,42.5052254 44.725487,40.2997451 46.3004435,37.7361969 C48.1970522,34.6489735 49.3689652,31.3053089 49.773487,27.7030446 C50.2332261,23.6096566 49.7480087,19.634387 48.2260957,15.8004621" id="Fill-5"></path>
                    </g>
                </g>
            </g>
        </g>
    </g>
</svg>