<?xml version="1.0" encoding="utf-8"?>
<!-- Generator: Adobe Illustrator 20.1.0, SVG Export Plug-In . SVG Version: 6.00 Build 0)  -->
<svg version="1.1" id="Layer_1" xmlns="http://www.w3.org/2000/svg" xmlns:xlink="http://www.w3.org/1999/xlink" x="0px" y="0px"
	 viewBox="0 0 87 30" style="enable-background:new 0 0 87 30;" xml:space="preserve">
<style type="text/css">
	.st0{fill:#FFFFFF;}
</style>
<title>Page 1</title>
<desc>Created with Sketch.</desc>
<g>
	<path class="st0" d="M26,21.6l4.1,3.1l0.5-0.4c0.3-0.2,0.7-0.4,1.2-0.4c0.3,0,0.6,0.1,1,0.3c0.6,0.5,0.8,1.4,0.6,2.1L33,26.9
		l3.9,2.8l7.2-9.8h-17L26,21.6z"/>
	<path class="st0" d="M3.7,11.2c-1.1,0-2.2,0.3-3.1,1.1l0.7,1.3c0.6-0.5,1.3-0.8,2.1-0.8C4.3,12.8,5,13.3,5,14v0.9
		C4.5,14.3,3.7,14,2.7,14c-1.1,0-2.5,0.6-2.5,2.3c0,1.6,1.3,2.4,2.5,2.4c0.9,0,1.8-0.3,2.3-0.9v0.7h1.9v-4.6
		C6.9,11.9,5.4,11.2,3.7,11.2z M4.9,16.8c-0.2,0.4-0.9,0.6-1.5,0.6c-0.7,0-1.3-0.4-1.3-1.1s0.6-1.1,1.3-1.1c0.6,0,1.3,0.2,1.5,0.6
		V16.8z"/>
	<path class="st0" d="M10.2,13.4c0-0.4,0.4-0.7,1.1-0.7c0.9,0,1.7,0.4,2.1,0.8l0.8-1.3c-0.7-0.6-1.7-1-2.9-1c-1.9,0-2.9,1.1-2.9,2.3
		c0,2.8,4.2,1.9,4.2,3c0,0.4-0.4,0.8-1.2,0.8c-0.9,0-1.9-0.5-2.5-1l-0.8,1.4c0.8,0.7,2,1.1,3.2,1.1c2,0,3.1-1,3.1-2.3
		C14.4,13.6,10.2,14.5,10.2,13.4z"/>
	<path class="st0" d="M16.7,8.4c-0.6,0-1.1,0.5-1.1,1.1s0.5,1.1,1.1,1.1s1.1-0.5,1.1-1.1C17.9,8.9,17.4,8.4,16.7,8.4z"/>
	<rect x="15.9" y="11.4" class="st0" width="1.8" height="7.2"/>
	<path class="st0" d="M22.6,11.2c-1.1,0-2.2,0.3-3.1,1.1l0.7,1.3c0.6-0.5,1.3-0.8,2.1-0.8c0.9,0,1.6,0.5,1.6,1.2v0.9
		c-0.5-0.6-1.3-0.9-2.3-0.9c-1.1,0-2.5,0.6-2.5,2.3c0,1.6,1.3,2.4,2.5,2.4c0.9,0,1.8-0.3,2.3-0.9v0.7h1.8v-4.6
		C25.7,11.9,24.2,11.2,22.6,11.2z M23.9,16.8c-0.4,0.4-0.9,0.6-1.5,0.6c-0.7,0-1.4-0.4-1.4-1.1s0.6-1.1,1.4-1.1
		c0.6,0,1.2,0.2,1.5,0.6V16.8z"/>
	<path class="st0" d="M29.2,17.6c0.6,0.7,1.4,1.1,2.2,1.1c1.8,0,3.2-1.4,3.2-3.8c0-2.3-1.4-3.8-3.2-3.8c-0.8,0-1.6,0.4-2.2,1.1V8.7
		h-1.8v9.9h1.8V17.6z M29.2,13.7c0.4-0.5,1-0.8,1.6-0.8c1.1,0,1.8,0.8,1.8,2.1c0,1.2-0.7,2.1-1.8,2.1c-0.6,0-1.3-0.3-1.7-0.8
		L29.2,13.7L29.2,13.7z"/>
	<path class="st0" d="M75.8,18.7c1.5,0,2.4-0.7,2.8-1.3l-1.2-1.2c-0.3,0.5-0.9,0.8-1.5,0.8c-1.1,0-1.9-0.8-1.9-2.1s0.8-2.1,1.9-2.1
		c0.7,0,1.2,0.3,1.5,0.8l1.2-1.2c-0.5-0.7-1.4-1.3-2.8-1.3c-2.2,0-3.8,1.6-3.8,3.8C72,17.2,73.6,18.7,75.8,18.7z"/>
	<path class="st0" d="M82.9,11.2c-2.2,0-3.8,1.7-3.8,3.8c0,2.3,1.6,3.8,3.8,3.8c1.1,0,2.2-0.3,3-1l-0.8-1.2
		c-0.5,0.4-1.3,0.7-1.9,0.7c-1.2,0-1.9-0.7-2.1-1.6h5.4v-0.5C86.5,12.8,85.1,11.2,82.9,11.2z M81.1,14.4c0.1-0.9,0.6-1.5,1.7-1.5
		c1.2,0,1.7,0.7,1.8,1.5H81.1z"/>
	<path class="st0" d="M35.6,15c0,2.1,1.7,3.8,3.8,3.8s3.8-1.7,3.8-3.8s-1.7-3.8-3.8-3.8C37.3,11.2,35.6,12.9,35.6,15z M41.4,15
		c0,1.1-0.9,2-2,2s-2-0.9-2-2s0.9-2,2-2S41.4,13.9,41.4,15z"/>
	<path class="st0" d="M52.2,11.9c-1.7,1.2-2.1,3.6-0.8,5.3c1.2,1.7,3.6,2.1,5.3,0.8c1.7-1.2,2.1-3.6,0.8-5.3
		C56.2,11.1,53.8,10.7,52.2,11.9z M55.6,16.6c-0.9,0.6-2.1,0.5-2.8-0.4c-0.6-0.9-0.5-2.1,0.4-2.8c0.9-0.6,2.1-0.5,2.8,0.4
		C56.6,14.7,56.4,15.9,55.6,16.6z"/>
	<polygon class="st0" points="50.5,11.4 48.4,11.4 46.9,13.5 45.4,11.4 43.3,11.4 45.7,14.8 43.2,18.5 45.3,18.5 46.9,16.1 
		48.5,18.5 50.6,18.5 48.1,14.8 	"/>
	<path class="st0" d="M69.6,10.6c0.6,0,1.1-0.5,1.1-1.1s-0.5-1.1-1.1-1.1s-1.1,0.5-1.1,1.1S69,10.6,69.6,10.6z"/>
	<rect x="68.6" y="11.4" class="st0" width="2.1" height="7.2"/>
	<path class="st0" d="M64.2,11.1v0.2h-1h-0.1h-1.3v-0.2c0-0.7,0.3-1,0.9-1c0.3,0,0.6,0.1,0.8,0.3l0.7-1.1c-0.4-0.5-1.2-0.7-1.9-0.7
		c-1.4,0-2.4,1-2.4,2.6v0.2h-1.2v1.7H60v5.5h1.9v-5.5h1.3h0.1h1v5.5h1.9v-5.5h1.3v-1.7h-1.3v-0.2c0-0.7,0.4-1,0.9-1
		c0.3,0,0.5,0,0.6,0.1L68,8.8c-0.3-0.2-0.8-0.3-1.4-0.3C65.3,8.5,64.2,9.4,64.2,11.1z"/>
	<path class="st0" d="M52.8,8.3l-4-2.9l-0.5,0.4c-0.3,0.3-0.7,0.4-1.1,0.4c-0.4,0-0.7-0.1-1.1-0.4c-0.3-0.3-1.1-1-0.6-2.1L46,3.2
		l-4.1-3l-7.4,10h17L52.8,8.3z"/>
	<circle class="st0" cx="69.3" cy="25.2" r="0.7"/>
	<path class="st0" d="M72.9,22.5c0.4,0,0.7,0.2,0.9,0.5l0.7-0.7c-0.3-0.4-0.8-0.8-1.7-0.8c-1.3,0-2.2,0.9-2.2,2.2
		c0,1.3,0.9,2.2,2.2,2.2c0.9,0,1.4-0.4,1.7-0.8l-0.7-0.7c-0.2,0.3-0.5,0.5-0.9,0.5c-0.7,0-1.1-0.5-1.1-1.2S72.3,22.5,72.9,22.5z"/>
	<path class="st0" d="M77.2,21.5c-1.4,0-2.2,1-2.2,2.2s0.8,2.2,2.2,2.2c1.4,0,2.2-1,2.2-2.2C79.4,22.5,78.6,21.5,77.2,21.5z
		 M77.2,24.9c-0.7,0-1.1-0.6-1.1-1.2c0-0.7,0.4-1.2,1.1-1.2s1.1,0.6,1.1,1.2C78.3,24.4,77.9,24.9,77.2,24.9z"/>
	<path class="st0" d="M85.3,21.5c-0.6,0-1.2,0.4-1.4,0.8c-0.1-0.5-0.5-0.8-1.2-0.8c-0.6,0-1.2,0.4-1.4,0.6v-0.6h-1.1v4.2h1.1V23
		c0.1-0.2,0.5-0.5,0.9-0.5c0.5,0,0.6,0.3,0.6,0.7v2.6h1.1V23c0.2-0.2,0.5-0.5,0.9-0.5c0.5,0,0.6,0.3,0.6,0.7v2.6h1.1v-3
		C86.5,21.9,86.1,21.5,85.3,21.5z"/>
</g>
</svg>
