<?xml version="1.0" encoding="UTF-8" standalone="no"?>
<svg width="87px" height="30px" viewBox="0 0 87 30" version="1.1" xmlns="http://www.w3.org/2000/svg" xmlns:xlink="http://www.w3.org/1999/xlink">
    <!-- Generator: Sketch 39.1 (31720) - http://www.bohemiancoding.com/sketch -->
    <title>Page 1</title>
    <desc>Created with Sketch.</desc>
    <defs>
        <polygon id="path-1" points="0.0926262053 9.7488903 18.3004637 9.7488903 18.3004637 0.0989300433 0.0926262053 0.0989300433 0.0926262053 9.7488903"></polygon>
    </defs>
    <g id="Symbols" stroke="none" stroke-width="1" fill="none" fill-rule="evenodd">
        <g id="Footer-Default-(Full-Web)" transform="translate(-335.000000, -226.000000)">
            <g id="Page-1" transform="translate(335.000000, 226.000000)">
                <g id="Group-3" transform="translate(25.661803, 19.451438)">
                    <mask id="mask-2" fill="white">
                        <use xlink:href="#path-1"></use>
                    </mask>
                    <g id="Clip-2"></g>
                    <path d="M3.37432635,0.0989300433 L1.32209894,0.0989300433 L0.0926262053,1.75143759 L4.2182986,4.76229053 L4.70099855,4.39479975 C5.00277561,4.1629457 5.43931298,4.02617866 5.86825217,4.02617866 C6.1267339,4.02617866 6.50492293,4.07803146 6.83766619,4.31991697 C7.48265195,4.79083076 7.62673078,5.74396139 7.39047017,6.3567286 L7.17313333,6.92046878 L11.0753043,9.74891856 L18.3004637,0.0989300433 L16.2769087,0.0989300433 L3.37432635,0.0989300433 Z" id="Fill-1" fill="#FFFFFF" mask="url(#mask-2)"></path>
                </g>
                <path d="M4.74802129,16.4856278 L4.74802129,15.6080864 C4.43635225,15.198633 3.84283346,14.9792123 3.23454838,14.9792123 C2.49264989,14.9792123 1.88422145,15.374113 1.88422145,16.0469278 C1.88422145,16.7194599 2.49264989,17.0995253 3.23454838,17.0995253 C3.84283346,17.0995253 4.43635225,16.8949399 4.74802129,16.4856278 L4.74802129,16.4856278 Z M4.74802129,18.1819347 L4.74802129,17.4362153 C4.25829661,18.02129 3.41274738,18.3574148 2.47774024,18.3574148 C1.33528825,18.3574148 1.43362031e-05,17.5970013 1.43362031e-05,16.0178224 C1.43362031e-05,14.3506208 1.33528825,13.7362995 2.47774024,13.7362995 C3.44242332,13.7362995 4.27320626,14.0434602 4.74802129,14.5991469 L4.74802129,13.7069115 C4.74802129,12.99058 4.1246832,12.5226333 3.1751965,12.5226333 C2.41853172,12.5226333 1.70616581,12.8151 1.11279039,13.3559515 L0.370748537,12.0545452 C1.24626043,11.2795791 2.37394613,10.943313 3.5017752,10.943313 C5.14857479,10.943313 6.64728142,11.5867398 6.64728142,13.6191715 L6.64728142,18.1819347 L4.74802129,18.1819347 Z" id="Fill-4" fill="#FFFFFF"></path>
                <path d="M7.87874689,17.260707 L8.69462018,15.9152188 C9.22893046,16.4124122 10.2823546,16.8949117 11.1727762,16.8949117 C11.9889362,16.8949117 12.3747234,16.587751 12.3747234,16.1491922 C12.3747234,14.9940193 8.13106406,15.9446068 8.13106406,13.1661731 C8.13106406,11.9816122 9.16972194,10.9432848 11.0689821,10.9432848 C12.2709293,10.9432848 13.2353256,11.3528795 13.9475482,11.9084249 L13.1908834,13.2246664 C12.7603673,12.7859663 11.9443506,12.4056183 11.0689821,12.4056183 C10.3864355,12.4056183 9.94129637,12.6982263 9.94129637,13.0929857 C9.94129637,14.1311719 14.199722,13.2539131 14.199722,16.1055341 C14.199722,17.4069403 13.0720363,18.3573865 11.083605,18.3573865 C9.83707217,18.3573865 8.63541167,17.9479331 7.87874689,17.260707" id="Fill-6" fill="#FFFFFF"></path>
                <path d="M15.5794381,18.181963 L17.4640753,18.181963 L17.4640753,11.1188213 L15.5794381,11.1188213 L15.5794381,18.181963 Z M15.4013825,9.24703438 C15.4013825,8.63271301 15.9058735,8.15021358 16.5143019,8.15021358 C17.1373533,8.15021358 17.642131,8.63271301 17.642131,9.24703438 C17.642131,9.86135576 17.1373533,10.3585492 16.5143019,10.3585492 C15.9058735,10.3585492 15.4013825,9.86135576 15.4013825,9.24703438 L15.4013825,9.24703438 Z" id="Fill-8" fill="#FFFFFF"></path>
                <path d="M23.6365274,16.4856278 L23.6365274,15.6080864 C23.3248584,15.198633 22.7313396,14.9792123 22.1230545,14.9792123 C21.381156,14.9792123 20.7727276,15.374113 20.7727276,16.0469278 C20.7727276,16.7194599 21.381156,17.0995253 22.1230545,17.0995253 C22.7313396,17.0995253 23.3248584,16.8949399 23.6365274,16.4856278 L23.6365274,16.4856278 Z M23.6365274,18.1819347 L23.6365274,17.4362153 C23.1468027,18.02129 22.3012535,18.3574148 21.3662463,18.3574148 C20.2237944,18.3574148 18.8885204,17.5970013 18.8885204,16.0178224 C18.8885204,14.3506208 20.2237944,13.7362995 21.3662463,13.7362995 C22.3309294,13.7362995 23.1617124,14.0434602 23.6365274,14.5991469 L23.6365274,13.7069115 C23.6365274,12.99058 23.0131893,12.5226333 22.0637026,12.5226333 C21.3070378,12.5226333 20.5946719,12.8151 20.0012965,13.3559515 L19.2592546,12.0545452 C20.1347665,11.2795791 21.2624522,10.943313 22.3902813,10.943313 C24.0370809,10.943313 25.5357875,11.5867398 25.5357875,13.6191715 L25.5357875,18.1819347 L23.6365274,18.1819347 Z" id="Fill-10" fill="#FFFFFF"></path>
                <path d="M30.6920752,16.7050061 C31.7753187,16.7050061 32.5023075,15.8714053 32.5023075,14.6430452 C32.5023075,13.429379 31.7753187,12.5957782 30.6920752,12.5957782 C30.0687371,12.5957782 29.3863339,12.9467383 29.0598985,13.4145437 L29.0598985,15.9152047 C29.3863339,16.3688813 30.0687371,16.7050061 30.6920752,16.7050061 L30.6920752,16.7050061 Z M27.1754047,18.1818923 L27.1754047,8.42805695 L29.0598985,8.42805695 L29.0598985,12.0253975 C29.6238847,11.294372 30.4249917,10.9432707 31.270541,10.9432707 C33.0958263,10.9432707 34.4461532,12.3471109 34.4461532,14.6430452 C34.4461532,17.0121668 33.08106,18.3573724 31.270541,18.3573724 C30.4100821,18.3573724 29.6238847,17.9770244 29.0598985,17.2751043 L29.0598985,18.1818923 L27.1754047,18.1818923 Z" id="Fill-11" fill="#FFFFFF"></path>
                <path d="M71.7902121,14.6430169 C71.7902121,12.4787633 73.3928562,10.9432424 75.5887324,10.9432424 C77.0577631,10.9432424 77.9478979,11.5722578 78.4228563,12.2155432 L77.1913765,13.3560221 C76.8500315,12.85897 76.3307742,12.5957499 75.6777602,12.5957499 C74.5351648,12.5957499 73.7340578,13.4146567 73.7340578,14.6430169 C73.7340578,15.8713771 74.5351648,16.7049778 75.6777602,16.7049778 C76.3307742,16.7049778 76.8500315,16.4123699 77.1913765,15.9300117 L78.4228563,17.0704906 C77.9478979,17.7137761 77.0577631,18.3574854 75.5887324,18.3574854 C73.3928562,18.3574854 71.7902121,16.8219645 71.7902121,14.6430169" id="Fill-12" fill="#FFFFFF"></path>
                <path d="M82.6888084,12.4640834 C81.5165371,12.4640834 81.0121895,13.2685788 80.937928,13.9702163 L84.4693648,13.9702163 C84.4100129,13.2976842 83.9350545,12.4640834 82.6888084,12.4640834 M78.979316,14.643031 C78.979316,12.5957641 80.5224648,10.9432565 82.6888084,10.9432565 C84.8402423,10.9432565 86.2797405,12.522718 86.2797405,14.8185111 L86.2797405,15.2573524 L80.9526943,15.2573524 C81.0861643,16.1199173 81.7985302,16.8366726 83.0153871,16.8366726 C83.6236722,16.8366726 84.4544551,16.587864 84.9145039,16.1491639 L85.7603398,17.3775241 C85.0479739,18.0212335 83.9204316,18.3573582 82.8073688,18.3573582 C80.6264023,18.3573582 78.979316,16.9097187 78.979316,14.643031" id="Fill-13" fill="#FFFFFF"></path>
                <path d="M39.1781466,12.6717348 C38.0811404,12.668909 37.186418,13.5460266 37.1836941,14.6268818 C37.1808269,15.7075957 38.070675,16.5890932 39.1675379,16.5922016 C40.2636839,16.5950273 41.1584063,15.7181923 41.1614169,14.6376197 C41.1644275,13.5566232 40.2744361,12.6745605 39.1781466,12.6717348 M39.1628069,18.3721511 C37.0697213,18.3670647 35.3723149,16.6844628 35.377906,14.6223606 C35.3834972,12.5596932 37.0902221,10.8864163 39.1828776,10.8920678 C41.2753897,10.897578 42.9733696,12.5798974 42.9680652,14.6424235 C42.9623307,16.7045257 41.2547456,18.3776614 39.1628069,18.3721511" id="Fill-14" fill="#FFFFFF"></path>
                <path d="M53.0174852,13.0659432 C52.1319379,13.7044248 51.9388293,14.9333502 52.5863956,15.8055226 C53.2338185,16.6776951 54.480638,16.8681517 55.3660419,16.2302351 C56.2508723,15.5921773 56.4442677,14.3636759 55.7969882,13.4912208 C55.1495652,12.6186245 53.902459,12.4278854 53.0174852,13.0659432 M56.4322253,17.6667129 C54.7432773,18.8849004 52.3643278,18.5209418 51.1289772,16.8564247 C49.8933399,15.1916251 50.262067,12.8472289 51.9511584,11.6296067 C53.6401065,10.4119844 56.0191993,10.7755191 57.2552667,12.4401774 C58.4906173,14.1046945 58.12103,16.4495145 56.4322253,17.6667129" id="Fill-15" fill="#FFFFFF"></path>
                <polygon id="Fill-16" fill="#FFFFFF" points="48.3344212 18.1819065 46.7018145 15.7980909 45.0551582 18.1819065 42.9629328 18.1819065 45.515207 14.5553193 43.1113125 11.1187648 45.2184476 11.1187648 46.7018145 13.2830185 48.1709885 11.1187648 50.2782669 11.1187648 47.8892821 14.5553193 50.4412696 18.1819065"></polygon>
                <path d="M68.497086,18.1812565 L70.3812931,18.1812565 L70.3812931,11.1191039 L68.497086,11.1191039 L68.497086,18.1812565 Z M68.3193171,9.24759954 C68.3193171,8.63356074 68.8235213,8.15106131 69.4318064,8.15106131 C70.0550012,8.15106131 70.5593488,8.63356074 70.5593488,9.24759954 C70.5593488,9.86163834 70.0550012,10.3588317 69.4318064,10.3588317 C68.8235213,10.3588317 68.3193171,9.86163834 68.3193171,9.24759954 L68.3193171,9.24759954 Z" id="Fill-17" fill="#FFFFFF"></path>
                <path d="M66.8478636,9.80306022 C67.1001808,9.80306022 67.3080557,9.84700087 67.456292,9.94929358 L67.8422226,8.57484133 C67.5008776,8.39936131 67.0259192,8.28237462 66.4768427,8.28237462 C65.0972699,8.28237462 64.0732349,9.17432744 64.0732349,10.8265524 L64.0732349,11.119443 L63.0963661,11.119443 L63.0311364,11.119443 L61.6419583,11.119443 L61.6419583,10.8265524 C61.6419583,10.1393263 61.9983563,9.80306022 62.5323799,9.80306022 C62.8737249,9.80306022 63.126042,9.90535293 63.3190073,10.080833 L64.0310865,8.95490677 C63.6010004,8.47254863 62.8589586,8.28237462 62.1615023,8.28237462 C60.7224343,8.28237462 59.7578946,9.23282078 59.7578946,10.8265524 L59.7578946,11.119443 L58.5710004,11.119443 L58.5710004,12.7421387 L59.7578946,12.7421387 L59.7578946,18.1804653 L61.6419583,18.1804653 L61.6419583,12.7421387 L63.0311364,12.7421387 L63.0963661,12.7421387 L64.0732349,12.7421387 L64.0732349,18.1804653 L65.957442,18.1804653 L65.957442,12.7421387 L67.4124233,12.7421387 L67.4124233,11.119443 L65.957442,11.119443 L65.957442,10.8265524 C65.957442,10.1393263 66.3136967,9.80306022 66.8478636,9.80306022" id="Fill-18" fill="#FFFFFF"></path>
                <path d="M38.5699906,9.80147779 L38.9279656,9.80147779 L49.2500315,9.80147779 L51.2983881,9.80147779 L52.6471381,7.99708536 L48.6840382,5.10887064 L48.1943135,5.54827715 C47.8673047,5.84286318 47.5081829,5.99163972 47.1269832,5.99163972 C46.7735958,5.99163972 46.4075926,5.86094808 46.0692582,5.61425876 C45.7281999,5.36573271 44.9904589,4.67073573 45.5084259,3.59143467 L45.7915659,3.00070843 L41.6628829,-0.000113030612 L34.2775882,9.80147779 L38.5699906,9.80147779 Z" id="Fill-19" fill="#FFFFFF"></path>
            </g>
        </g>
    </g>
</svg>