<?xml version="1.0" encoding="UTF-8" standalone="no"?>
<svg width="51px" height="51px" viewBox="0 0 51 51" version="1.1" xmlns="http://www.w3.org/2000/svg" xmlns:xlink="http://www.w3.org/1999/xlink">
    <!-- Generator: Sketch 39.1 (31720) - http://www.bohemiancoding.com/sketch -->
    <title>Page 1</title>
    <desc>Created with Sketch.</desc>
    <defs>
        <polygon id="path-1" points="31.1551724 0.674735484 0 0.674735484 0 15.2095071 0 29.7442787 31.1551724 29.7442787 31.1551724 0.674735484"></polygon>
        <polygon id="path-3" points="19.8388966 3.85368086 19.8388966 0.237612043 0.671517241 0.237612043 0.671517241 3.85368086 19.8388966 3.85368086"></polygon>
    </defs>
    <g id="Symbols" stroke="none" stroke-width="1" fill="none" fill-rule="evenodd">
        <g id="Navigation-Region-Select---Dropdown-v4b-(Full-Web)" transform="translate(-557.000000, -120.000000)">
            <g id="Page-1" transform="translate(557.000000, 120.000000)">
                <g id="Group-3" transform="translate(0.000000, 0.115406)">
                    <mask id="mask-2" fill="white">
                        <use xlink:href="#path-1"></use>
                    </mask>
                    <g id="Clip-2"></g>
                    <path d="M0,25.7810959 C0,27.1337669 0.138068966,28.4488637 0.344275862,29.7442787 L30.6907586,29.7442787 C30.8395862,29.7442787 30.9866207,29.738911 31.1390345,29.731754 C31.1426207,28.5275905 31.148,27.3180594 31.1551724,26.1156852 L31.1551724,22.4996163 L31.1551724,18.8907045 L31.1551724,15.2710572 L31.1551724,11.6675131 L31.1551724,8.04965505 L31.1551724,4.43537548 C31.1515862,3.78230022 31.1497931,2.57992602 31.148,1.42228301 C29.2275862,0.951710968 27.2282759,0.674377634 25.1608276,0.674377634 C11.2875862,0.674377634 0,11.9376895 0,25.7810959" id="Fill-1" fill="#102A7D" mask="url(#mask-2)"></path>
                </g>
                <path d="M19.2224276,16.9309419 C18.1214621,16.5068903 17.0563586,16.0935742 15.987669,15.6820473 C15.9948414,15.6695226 15.9948414,15.6605763 15.9984276,15.6498409 C17.1280828,15.7393032 18.259531,15.8287656 19.4519448,15.9218065 C18.6486345,15.064757 17.8901517,14.254228 17.131669,13.4436989 C17.1370483,13.4293849 17.1442207,13.4114925 17.1549793,13.400757 C18.1178759,13.9590022 19.0807724,14.5190366 20.1010483,15.1112774 C19.7496,13.9858409 19.4142897,12.9194495 19.0807724,11.8512688 C19.0933241,11.8441118 19.1058759,11.8369548 19.1184276,11.8315871 C19.7496,12.7602065 20.3771862,13.6870366 21.0388414,14.6621763 C21.2109793,13.4955871 21.3723586,12.388043 21.535531,11.2787097 C21.535531,11.2787097 21.5660138,11.2787097 21.5803586,11.2769204 C21.7417379,12.3844645 21.9067034,13.4902194 22.0770483,14.6621763 C22.7369103,13.6888258 23.3644966,12.7619957 23.9938759,11.8351656 C24.0046345,11.8405333 24.0207724,11.8459011 24.031531,11.8512688 C23.6998069,12.9212387 23.3627034,13.9840516 23.0112552,15.1112774 C24.0189793,14.5261935 24.9729103,13.9715269 25.9250483,13.4186495 C25.9358069,13.4347527 25.9483586,13.4508559 25.9627034,13.4633806 C25.2113931,14.2649634 24.4582897,15.0683355 23.6603586,15.9218065 C24.8527724,15.8269763 25.9806345,15.737514 27.1084966,15.6498409 C27.1120828,15.6605763 27.115669,15.6713118 27.1192552,15.6838366 C26.0577379,16.0935742 24.9908414,16.5051011 23.8880828,16.9309419 C24.9711172,17.3496258 26.0111172,17.7539957 27.0529103,18.1565763 C27.0493241,18.1762581 27.0457379,18.1923613 27.0421517,18.2102538 C25.9358069,18.1225806 24.827669,18.0349075 23.6585655,17.9436559 C24.4547034,18.7935484 25.2113931,19.5987097 25.9644966,20.4056602 C25.955531,20.4217634 25.9447724,20.4360774 25.9322207,20.4503914 C24.9764966,19.8939355 24.0207724,19.3392688 23.0112552,18.7523957 C23.3627034,19.8742538 23.6998069,20.9495914 24.0351172,22.0213505 C24.0243586,22.0267183 24.0100138,22.0338753 23.9974621,22.0374538 C23.3680828,21.1124129 22.7404966,20.1837935 22.0752552,19.2050753 C21.9067034,20.3555613 21.7453241,21.4470022 21.5839448,22.5348645 C21.5642207,22.531286 21.5444966,22.531286 21.5247724,22.5277075 C21.3669793,21.4416344 21.2073931,20.3573505 21.0478069,19.2748559 C21.031669,19.2676989 21.0173241,19.2605419 21.0029793,19.2515957 C20.3736,20.1820043 19.7478069,21.1088344 19.1166345,22.0374538 C19.1058759,22.032086 19.0897379,22.024929 19.0789793,22.0213505 C19.4142897,20.9478022 19.7496,19.8742538 20.1028414,18.7523957 C19.0897379,19.3428473 18.1232552,19.9064602 17.1549793,20.4664946 C17.1442207,20.4521806 17.1370483,20.4396559 17.1244966,20.4289204 C17.8865655,19.6148129 18.6504276,18.8042839 19.4537379,17.9418667 C18.2882207,18.0349075 17.1782897,18.1225806 16.0683586,18.2084645 C16.0647724,18.190572 16.0611862,18.1744688 16.0576,18.1565763 C17.0976,17.7557849 18.1393931,17.3514151 19.2224276,16.9309419" id="Fill-4" fill="#FAD208"></path>
                <path d="M18.4336414,22.7223776 C17.7737793,23.1893712 17.0368138,23.4971217 16.2568138,23.6957282 C13.5617793,24.3756422 10.6712966,23.3521927 9.00191724,21.1245798 C7.92067586,19.6878142 7.42398621,18.0613884 7.6284,16.2918228 C7.95295172,13.4415518 9.48067586,11.4268594 12.1757103,10.4087776 C14.2754345,9.61077333 16.3213655,9.8630572 18.2489517,11.0171217 C18.3170897,11.0564852 18.3152966,11.0564852 18.3977793,11.185311 C18.1037103,11.0529067 17.8257793,10.9741798 17.5442621,10.9097669 C16.1779172,10.6002271 14.8510207,10.7129497 13.5725379,11.2944551 C12.1416414,11.9421626 11.0980552,12.9906615 10.454331,14.4220594 C9.93971034,15.5689669 9.78371034,16.7713411 10.0204,18.007711 C10.4346069,20.1816465 11.6736414,21.7347131 13.6962621,22.6221798 C15.1576414,23.2680981 16.6692276,23.289569 18.1879862,22.7724766 C18.2632966,22.7438486 18.3368138,22.6973282 18.4228828,22.7080637 L18.4336414,22.7223776 Z" id="Fill-6" fill="#FAD208"></path>
                <path d="M25.1611862,51.0035785 C29.5417379,51.0035785 33.6658759,49.8727742 37.2592552,47.8992344 L13.0631172,47.8992344 C16.6564966,49.8727742 20.7788414,51.0035785 25.1611862,51.0035785" id="Fill-8" fill="#FFFFFF"></path>
                <path d="M13.0631172,47.8985187 L37.2592552,47.8985187 C39.0631172,46.9054865 40.7199448,45.687009 42.2207724,44.2967639 L8.1033931,44.2967639 C9.60242759,45.687009 11.2592552,46.9054865 13.0631172,47.8985187" id="Fill-10" fill="#D00627"></path>
                <path d="M45.4562483,40.6717488 L4.86397241,40.6717488 C5.82328276,41.9832671 6.90631724,43.1945875 8.10052414,44.2967639 L42.2196966,44.2967639 C43.4139034,43.1945875 44.4969379,41.9832671 45.4562483,40.6717488" id="Fill-12" fill="#FFFFFF"></path>
                <path d="M4.8654069,40.6717488 L45.4594759,40.6717488 C46.2896828,39.5391553 47.0248552,38.3385703 47.6596138,37.0735725 L2.66706207,37.0735725 C3.29823448,38.3385703 4.0352,39.5391553 4.8654069,40.6717488" id="Fill-14" fill="#D00627"></path>
                <path d="M2.66508966,37.0739303 L47.6576414,37.0739303 C48.2404,35.9127088 48.7550207,34.7067561 49.1548828,33.4489153 L1.16784828,33.4489153 C1.56591724,34.7067561 2.08053793,35.9127088 2.66508966,37.0739303" id="Fill-16" fill="#FFFFFF"></path>
                <path d="M1.16802759,33.4483785 L49.1550621,33.4483785 C49.5244414,32.2853677 49.7844414,31.0794151 49.9798897,29.8466237 L31.5844414,29.8466237 C31.4374069,29.8466237 31.2849931,29.8466237 31.1379586,29.8430452 C30.9855448,29.8502022 30.8385103,29.8555699 30.6896828,29.8555699 L0.344993103,29.8555699 C0.540441379,31.0829935 0.800441379,32.2889462 1.16802759,33.4483785" id="Fill-18" fill="#D00627"></path>
                <path d="M50.3031862,26.2293024 L31.1528414,26.2293024 C31.145669,27.4298873 31.1402897,28.6394185 31.1384966,29.8435819 C31.2873241,29.8471604 31.4379448,29.8471604 31.5867724,29.8471604 L49.9768414,29.8471604 C50.1669103,28.664468 50.2888414,27.4603045 50.3031862,26.2293024" id="Fill-20" fill="#FFFFFF"></path>
                <g id="Group-24" transform="translate(30.482759, 22.375622)">
                    <mask id="mask-4" fill="white">
                        <use xlink:href="#path-3"></use>
                    </mask>
                    <g id="Clip-23"></g>
                    <path d="M19.8397931,3.52088086 C19.8397931,2.40439054 19.7393793,1.31473892 19.5995172,0.237612043 L0.671517241,0.237612043 L0.671517241,3.85368086 L19.820069,3.85368086 C19.8236552,3.74095828 19.8397931,3.63181419 19.8397931,3.52088086" id="Fill-22" fill="#D00627" mask="url(#mask-4)"></path>
                </g>
                <path d="M49.3331172,19.0041428 L31.1528414,19.0041428 L31.1528414,22.6130546 L50.0826345,22.6130546 C49.9212552,21.3802632 49.6702207,20.1743105 49.3331172,19.0041428" id="Fill-25" fill="#FFFFFF"></path>
                <path d="M47.9812966,15.3846744 L31.1548138,15.3846744 L31.1548138,19.0043217 L49.3368828,19.0043217 C48.976469,17.7536378 48.5210207,16.5476852 47.9812966,15.3846744" id="Fill-27" fill="#D00627"></path>
                <path d="M45.9534759,11.7807725 L31.1549931,11.7807725 C31.1549931,12.9813574 31.1549931,14.1819424 31.1567862,15.3843166 L47.9814759,15.3843166 C47.3933379,14.1264757 46.7280966,12.9151553 45.9534759,11.7807725" id="Fill-29" fill="#FFFFFF"></path>
                <path d="M42.9539724,8.16291441 L31.1553517,8.16291441 L31.1553517,11.7807725 L45.9538345,11.7807725 C45.0680414,10.4835682 44.0621103,9.27045849 42.9539724,8.16291441" id="Fill-31" fill="#D00627"></path>
                <path d="M38.3397793,4.54863484 L31.1548138,4.54863484 C31.1548138,5.75458753 31.1548138,6.95875097 31.1530207,8.16291441 L42.9534345,8.16291441 C41.5691586,6.77982624 40.0127448,5.58103054 38.3397793,4.54863484" id="Fill-33" fill="#FFFFFF"></path>
                <path d="M31.1445931,1.53715269 C31.1481793,2.54270968 31.1499724,3.54647742 31.1553517,4.54845591 L38.3403172,4.54845591 C36.1383862,3.19220645 33.7212828,2.16696774 31.1445931,1.53715269" id="Fill-35" fill="#D00627"></path>
            </g>
        </g>
    </g>
</svg>