<?xml version="1.0" encoding="UTF-8" standalone="no"?>
<svg width="41px" height="42px" viewBox="0 0 41 42" version="1.1" xmlns="http://www.w3.org/2000/svg" xmlns:xlink="http://www.w3.org/1999/xlink">
    <!-- Generator: Sketch 39.1 (31720) - http://www.bohemiancoding.com/sketch -->
    <title>Page 1</title>
    <desc>Created with Sketch.</desc>
    <defs>
        <polygon id="path-1" points="25.1637931 0.54497866 0 0.54497866 0 12.2846019 0 24.0242251 25.1637931 24.0242251 25.1637931 0.54497866"></polygon>
        <polygon id="path-3" points="16.0237241 3.11258839 16.0237241 0.191917419 0.54237931 0.191917419 0.54237931 3.11258839 16.0237241 3.11258839"></polygon>
    </defs>
    <g id="Symbols" stroke="none" stroke-width="1" fill="none" fill-rule="evenodd">
        <g id="Navigation-Region-Select---Dropdown-v4b-(Mobile)" transform="translate(-106.000000, -255.000000)">
            <g id="Group-5" transform="translate(92.000000, 255.000000)">
                <g id="Page-1" transform="translate(14.000000, 0.000000)">
                    <g id="Group-3" transform="translate(0.000000, 0.093213)">
                        <mask id="mask-2" fill="white">
                            <use xlink:href="#path-1"></use>
                        </mask>
                        <g id="Clip-2"></g>
                        <path d="M0,20.8231929 C0,21.9157348 0.111517241,22.9779283 0.278068966,24.0242251 L24.7886897,24.0242251 C24.9088966,24.0242251 25.0276552,24.0198896 25.1507586,24.014109 C25.1536552,23.0415154 25.158,22.0645864 25.1637931,21.093438 L25.1637931,18.172767 L25.1637931,15.2578767 L25.1637931,12.3343154 L25.1637931,9.4237606 L25.1637931,6.50164447 L25.1637931,3.58241866 C25.1608966,3.05493479 25.1594483,2.0837864 25.158,1.14876705 C23.6068966,0.768689628 21.992069,0.544689628 20.3222069,0.544689628 C9.11689655,0.544689628 0,9.64197995 0,20.8231929" id="Fill-1" fill="#102A7D" mask="url(#mask-2)"></path>
                    </g>
                    <path d="M15.5258069,13.6749916 C14.6365655,13.3324883 13.7762897,12.9986561 12.9131172,12.666269 C12.9189103,12.6561529 12.9189103,12.648927 12.9218069,12.6402561 C13.8342207,12.7125141 14.7480828,12.7847722 15.7111862,12.8599206 C15.0623586,12.1676883 14.4497379,11.5130303 13.8371172,10.8583722 C13.8414621,10.8468109 13.8472552,10.8323593 13.8559448,10.8236883 C14.633669,11.2745787 15.4113931,11.7269141 16.2354621,12.2052625 C15.9516,11.2962561 15.6807724,10.43494 15.4113931,9.57217866 C15.421531,9.56639801 15.431669,9.56061737 15.4418069,9.55628189 C15.9516,10.3063206 16.4584966,11.0549141 16.9929103,11.842527 C17.1319448,10.9002819 17.2622897,10.005727 17.3940828,9.10972705 C17.3940828,9.10972705 17.4187034,9.10972705 17.4302897,9.10828189 C17.5606345,10.0028367 17.6938759,10.8959464 17.8314621,11.842527 C18.3644276,11.0563593 18.8713241,10.3077658 19.379669,9.55917221 C19.3883586,9.56350769 19.4013931,9.56784318 19.4100828,9.57217866 C19.1421517,10.4363851 18.8698759,11.2948109 18.5860138,12.2052625 C19.3999448,11.7326948 20.1704276,11.2846948 20.9394621,10.83814 C20.9481517,10.8511464 20.9582897,10.8641529 20.9698759,10.874269 C20.3630483,11.5217012 19.7547724,12.1705787 19.1102897,12.8599206 C20.0733931,12.783327 20.9843586,12.711069 21.8953241,12.6402561 C21.8982207,12.648927 21.9011172,12.657598 21.9040138,12.6677141 C21.0466345,12.9986561 20.1849103,13.3310432 19.2942207,13.6749916 C20.1689793,14.0131593 21.0089793,14.3397658 21.8504276,14.664927 C21.847531,14.6808238 21.8446345,14.6938303 21.8417379,14.7082819 C20.9481517,14.637469 20.0531172,14.5666561 19.1088414,14.4929529 C19.7518759,15.1794045 20.3630483,15.829727 20.9713241,16.4814948 C20.9640828,16.4945012 20.9553931,16.5060625 20.9452552,16.5176238 C20.1733241,16.0681787 19.4013931,15.6201787 18.5860138,15.1461658 C18.8698759,16.0522819 19.1421517,16.9208238 19.4129793,17.7864754 C19.4042897,17.7908109 19.3927034,17.7965916 19.3825655,17.7994819 C18.8742207,17.0523335 18.3673241,16.3022948 17.8300138,15.5117916 C17.6938759,16.4410303 17.563531,17.3225787 17.4331862,18.2012367 C17.4172552,18.1983464 17.4013241,18.1983464 17.3853931,18.1954561 C17.2579448,17.3182432 17.1290483,16.4424754 17.0001517,15.5681529 C16.9871172,15.5623722 16.975531,15.5565916 16.9639448,15.5493658 C16.4556,16.3008496 15.9501517,17.0494432 15.4403586,17.7994819 C15.431669,17.7951464 15.4186345,17.7893658 15.4099448,17.7864754 C15.6807724,16.9193787 15.9516,16.0522819 16.2369103,15.1461658 C15.4186345,15.623069 14.6380138,16.0782948 13.8559448,16.5306303 C13.8472552,16.519069 13.8414621,16.5089529 13.8313241,16.5002819 C14.4468414,15.8427335 15.0638069,15.1880754 15.7126345,14.4915077 C14.7712552,14.5666561 13.8747724,14.637469 12.9782897,14.7068367 C12.9753931,14.6923851 12.9724966,14.6793787 12.9696,14.664927 C13.8096,14.3412109 14.6510483,14.0146045 15.5258069,13.6749916" id="Fill-4" fill="#FAD208"></path>
                    <path d="M14.8887103,18.3526896 C14.3557448,18.7298767 13.7605034,18.9784445 13.1305034,19.1388574 C10.9537448,19.6880187 8.61912414,18.8613864 7.27077931,17.0621606 C6.39746897,15.9016961 5.99629655,14.5880445 6.1614,13.15878 C6.42353793,10.856638 7.65746897,9.2293864 9.83422759,8.40708963 C11.5301586,7.76254769 13.1826414,7.96631543 14.7395379,8.89844447 C14.7945724,8.93023801 14.7931241,8.93023801 14.8597448,9.03428963 C14.6222276,8.92734769 14.3977448,8.8637606 14.1703655,8.81173479 C13.0667793,8.56172189 11.9950552,8.65276705 10.9624345,9.12244447 C9.80671034,9.64559285 8.96381379,10.4924574 8.44388276,11.6485864 C8.02822759,12.5749348 7.90222759,13.5460832 8.0934,14.5446896 C8.42795172,16.3005606 9.42871034,17.5549606 11.0623655,18.2717606 C12.2427103,18.7934638 13.4636069,18.8108058 14.6902966,18.3931541 C14.7511241,18.3700316 14.8105034,18.3324574 14.8800207,18.3411283 L14.8887103,18.3526896 Z" id="Fill-6" fill="#FAD208"></path>
                    <path d="M20.3224966,41.195198 C23.8606345,41.195198 27.191669,40.2818561 30.0940138,38.6878432 L10.5509793,38.6878432 C13.4533241,40.2818561 16.7829103,41.195198 20.3224966,41.195198" id="Fill-8" fill="#FFFFFF"></path>
                    <path d="M10.5509793,38.6872651 L30.0940138,38.6872651 C31.5509793,37.8852006 32.8891862,36.9010458 34.1013931,35.7781554 L6.54504828,35.7781554 C7.7558069,36.9010458 9.09401379,37.8852006 10.5509793,38.6872651" id="Fill-10" fill="#D00627"></path>
                    <path d="M36.7146621,32.8502587 L3.9285931,32.8502587 C4.70342069,33.9095619 5.57817931,34.8879361 6.54273103,35.7781554 L34.1005241,35.7781554 C35.0650759,34.8879361 35.9398345,33.9095619 36.7146621,32.8502587" id="Fill-12" fill="#FFFFFF"></path>
                    <path d="M3.92975172,32.8502587 L36.717269,32.8502587 C37.3878207,31.9354716 37.9816138,30.9657683 38.4943034,29.9440393 L2.15416552,29.9440393 C2.66395862,30.9657683 3.2592,31.9354716 3.92975172,32.8502587" id="Fill-14" fill="#D00627"></path>
                    <path d="M2.15257241,29.9443283 L38.4927103,29.9443283 C38.9634,29.0064187 39.3790552,28.03238 39.7020207,27.0164316 L0.943262069,27.0164316 C1.26477931,28.03238 1.68043448,29.0064187 2.15257241,29.9443283" id="Fill-16" fill="#FFFFFF"></path>
                    <path d="M0.943406897,27.015998 L39.7021655,27.015998 C40.0005103,26.0766432 40.2105103,25.1026045 40.3683724,24.1068883 L25.5105103,24.1068883 C25.3917517,24.1068883 25.2686483,24.1068883 25.1498897,24.103998 C25.0267862,24.1097787 24.9080276,24.1141141 24.7878207,24.1141141 L0.278648276,24.1141141 C0.436510345,25.1054948 0.646510345,26.0795335 0.943406897,27.015998" id="Fill-18" fill="#D00627"></path>
                    <path d="M40.6294966,21.1852058 L25.1619103,21.1852058 C25.1561172,22.154909 25.1517724,23.131838 25.1503241,24.1044316 C25.270531,24.1073219 25.3921862,24.1073219 25.5123931,24.1073219 L40.3659103,24.1073219 C40.5194276,23.1520703 40.6179103,22.1794767 40.6294966,21.1852058" id="Fill-20" fill="#FFFFFF"></path>
                    <g id="Group-24" transform="translate(24.620690, 18.072617)">
                        <mask id="mask-4" fill="white">
                            <use xlink:href="#path-3"></use>
                        </mask>
                        <g id="Clip-23"></g>
                        <path d="M16.0244483,2.84378839 C16.0244483,1.94200774 15.9433448,1.06190452 15.8303793,0.191917419 L0.54237931,0.191917419 L0.54237931,3.11258839 L16.0085172,3.11258839 C16.0114138,3.02154323 16.0244483,2.93338839 16.0244483,2.84378839" id="Fill-22" fill="#D00627" mask="url(#mask-4)"></path>
                    </g>
                    <path d="M39.8459793,15.3495 L25.1619103,15.3495 L25.1619103,18.2643903 L40.4513586,18.2643903 C40.3210138,17.2686741 40.1182552,16.2946354 39.8459793,15.3495" id="Fill-25" fill="#FFFFFF"></path>
                    <path d="M38.7541241,12.4260832 L25.1635034,12.4260832 L25.1635034,15.3496445 L39.8490207,15.3496445 C39.5579172,14.3394767 39.1900552,13.365438 38.7541241,12.4260832" id="Fill-27" fill="#D00627"></path>
                    <path d="M37.116269,9.51523931 L25.1636483,9.51523931 C25.1636483,10.4849425 25.1636483,11.4546458 25.1650966,12.4257941 L38.754269,12.4257941 C38.2792345,11.4098458 37.7419241,10.4314716 37.116269,9.51523931" id="Fill-29" fill="#FFFFFF"></path>
                    <path d="M34.6935931,6.59312318 L25.1639379,6.59312318 L25.1639379,9.51523931 L37.1165586,9.51523931 C36.4011103,8.46749737 35.5886276,7.48767801 34.6935931,6.59312318" id="Fill-31" fill="#D00627"></path>
                    <path d="M30.9667448,3.67389737 L25.1635034,3.67389737 C25.1635034,4.64793608 25.1635034,5.62052963 25.1620552,6.59312318 L34.6931586,6.59312318 C33.5750897,5.4760135 32.3179862,4.50775543 30.9667448,3.67389737" id="Fill-33" fill="#FFFFFF"></path>
                    <path d="M25.1552483,1.2415464 C25.1581448,2.05372705 25.1595931,2.86446253 25.1639379,3.67375285 L30.9671793,3.67375285 C29.1886966,2.5783206 27.2364207,1.75024318 25.1552483,1.2415464" id="Fill-35" fill="#D00627"></path>
                </g>
            </g>
        </g>
    </g>
</svg>