<?xml version="1.0" encoding="UTF-8" standalone="no"?>
<svg width="40px" height="39px" viewBox="0 0 40 39" version="1.1" xmlns="http://www.w3.org/2000/svg" xmlns:xlink="http://www.w3.org/1999/xlink">
    <!-- Generator: Sketch 39.1 (31720) - http://www.bohemiancoding.com/sketch -->
    <title>Group 2</title>
    <desc>Created with Sketch.</desc>
    <defs></defs>
    <g id="Symbols" stroke="none" stroke-width="1" fill="none" fill-rule="evenodd">
        <g id="Navigation-Region-Select---Dropdown-v4b-(Mobile)" transform="translate(-107.000000, -159.000000)">
            <g id="Group-2" transform="translate(107.000000, 159.000000)">
                <ellipse id="Oval-8" fill="#FFFFFF" cx="19.6078431" cy="19.4779899" rx="19.6078431" ry="19.4779899"></ellipse>
                <g id="Group" fill="#999999">
                    <path d="M2.73579767,10.9423107 C2.67413779,10.7657285 2.61236973,10.5891462 2.55070984,10.412564 C2.4945669,10.4193001 2.43842395,10.4260362 2.382281,10.4326761 C2.28232708,10.6030996 2.18226499,10.7734269 2.0822029,10.9438504 C2.10848948,10.9845557 2.13477606,11.0253572 2.16106265,11.0661588 C2.35264099,11.0248761 2.54421933,10.9836896 2.73579767,10.9423107" id="Fill-1"></path>
                    <path d="M1.75441432,12.489028 C1.63976812,12.5986678 1.56126854,12.7455538 1.46926513,12.871582 C1.85419267,12.9820343 2.16096164,13.0742021 2.47018585,13.1578371 C2.88375789,13.2697116 3.22428645,13.059439 3.06953794,12.772913 C2.89057801,12.4416236 2.70916283,12.112569 2.53443137,11.7774195 C2.42612788,11.5697203 2.10415004,11.4717962 1.82991304,11.2932169 C1.77180563,11.5254309 1.4961364,11.6635133 1.75946121,11.8930863 C2.02517306,12.1248264 2.00935038,12.2453691 1.75441432,12.489028" id="Fill-3"></path>
                    <g id="Group-7" transform="translate(0.000000, 0.022280)">
                        <path d="M32.6269804,33.2009068 C31.5311236,33.8359233 30.4284467,34.4595628 29.3398875,35.1069044 C28.947867,35.3399312 28.5438431,35.4772009 28.0724365,35.4711061 C27.9832975,35.2657093 28.0070315,35.0927508 28.2049514,34.9518241 C28.7767502,34.5451617 29.3281569,34.1059933 29.9258721,33.7413176 C30.158711,33.5993074 30.4923512,33.6117003 30.7827519,33.5729641 C31.3175857,33.5015188 31.6008934,33.2170244 31.6409957,32.6873135 C31.6478159,32.5973804 31.6531355,32.5071765 31.6581824,32.4171081 C31.6890094,31.8649817 31.7036044,31.853266 32.3234169,31.9111671 C32.3344655,32.1380313 32.3456505,32.3697714 32.3591543,32.6493222 C32.7172106,32.5420527 32.8172617,32.7462981 32.8976709,33.0152168 C32.809555,33.0761654 32.7223939,33.1456468 32.6269804,33.2009068 M26.4492481,33.6658091 C25.813272,33.6659445 25.1772276,33.6286304 24.5411833,33.6281564 C24.3052072,33.628021 24.1941756,33.524002 24.1110384,33.3280185 C23.939376,32.9231168 23.7512771,32.525258 23.5788645,32.1208303 C23.5080034,31.954847 23.4154544,31.8860428 23.2186939,31.8991129 C22.6861108,31.9347339 22.1490264,31.915569 21.619035,31.9692714 C21.2980119,32.0017774 20.982445,32.1165639 20.671925,32.217129 C20.0480205,32.4188011 19.429231,32.6361167 18.8062813,32.8478791 C18.7095038,32.55045 18.7755226,32.3303579 19.0080205,32.1670835 C19.231925,32.0099716 19.3077647,31.8012565 19.3093333,31.529155 C19.3131526,30.8528966 19.3332038,30.175961 19.3750793,29.5009893 C19.383809,29.3606722 19.4860426,29.1956369 19.5956419,29.0973743 C19.9476965,28.7815252 20.339035,28.5489048 20.8537494,28.6216367 C20.9504587,28.6353163 21.0897937,28.5509364 21.1663154,28.471026 C21.4943632,28.1286304 21.85126,27.8007271 22.112948,27.4114011 C22.4568866,26.8995684 22.9177903,26.8163398 23.4134084,26.873496 C23.5177562,27.0018943 23.6015072,27.1849432 23.6806206,27.1829793 C23.7928116,27.1802028 23.9073214,27.0476735 24.0092822,26.957605 C24.0667758,26.9068145 24.0930332,26.8225701 24.146844,26.7660233 C24.4147383,26.4847118 24.4883956,25.9965813 25.0694015,26.058478 C25.4893163,26.1031736 25.904798,26.0746632 26.2550111,26.3678259 C26.3740222,26.467443 26.5208593,26.5345542 26.6579437,26.6183246 C26.4485661,26.9672891 26.1815584,27.1439722 25.7891287,26.9485305 C25.6218312,27.588152 25.7503905,27.7846773 26.342445,27.8635718 C27.0297084,27.9550624 27.0260938,27.9547238 27.0993419,27.2857116 C27.1373981,26.9382369 27.1897766,26.5923876 27.2381313,26.2461319 C27.2425644,26.2147095 27.2648662,26.1857928 27.2798704,26.1535578 C27.5725217,26.0918643 27.7516863,26.1610748 27.9485149,26.4351402 C28.3270997,26.9621423 28.3940051,27.5330951 28.3727945,28.1345899 C28.3620188,28.4377075 28.4547042,28.666671 28.7157783,28.8138957 C29.2325388,29.1052299 29.4095891,29.5860465 29.4739028,30.1291661 C29.4849514,30.2228237 29.4589668,30.3254205 29.4314135,30.4184009 C29.1925729,31.2232608 28.6959318,31.846223 28.0579778,32.3817579 C27.63363,32.7381039 27.2487025,33.1402969 26.832266,33.5064624 C26.7328968,33.5938898 26.5783529,33.6656736 26.4492481,33.6658091 M25.8004501,34.8048026 C25.4276624,35.05029 25.0608764,34.9935401 24.6053606,34.8801757 C24.8543632,34.6046881 25.0290946,34.3178912 25.2847127,34.1610502 C25.4591714,34.0540515 25.7471168,34.1183184 25.9828201,34.1319303 C26.0229224,34.1341651 26.0738005,34.2640533 26.08785,34.3407808 C26.1310895,34.5763809 25.9893674,34.6804675 25.8004501,34.8048026 M17.1118909,24.9203648 C17.24311,24.8993714 17.369896,24.8790552 17.507526,24.8571137 C17.234994,24.5794591 16.9681228,24.3399312 16.7394442,24.0686423 C16.0864177,23.2938503 15.4488048,22.5061915 14.7903223,21.705598 C14.9273384,21.5889831 15.0448491,21.4890951 15.1795465,21.3744441 C15.7142438,21.8529582 16.2482592,22.3053321 16.7473555,22.7931239 C16.8933743,22.9357436 16.9137664,23.1980934 17.0417801,23.3686139 C17.1206206,23.4735132 17.2903052,23.5545071 17.4258892,23.5656133 C17.7627349,23.593311 18.103468,23.5746879 18.4789838,23.5746879 C18.4959659,23.7543507 18.5123342,23.9270384 18.5326581,24.1421192 C18.3200068,24.1694783 18.1257016,24.1943995 17.88311,24.225551 C17.8995465,24.3867939 17.9179608,24.5669985 17.9402626,24.7863457 C18.6863836,24.7142909 19.3985405,24.6873381 19.928191,25.3002099 C19.5397852,25.3002099 19.1513794,25.3087427 18.763451,25.2979752 C18.310254,25.2853114 17.8576709,25.2479296 17.4044058,25.2368911 C17.1856164,25.2315412 17.1000239,25.1370032 17.1118909,24.9203648 M18.8759829,22.3463708 C19.28785,22.1319672 19.7111066,21.9324622 20.0962387,21.6770199 C20.2882251,21.5496374 20.4024621,21.3090937 20.559734,21.1264511 C20.625139,21.0506039 20.7111407,20.9922965 20.7877306,20.9259302 C20.8439966,20.996292 20.9092651,21.0614392 20.9550963,21.1380313 C21.1714987,21.4993887 21.2911918,21.8833647 21.1953009,22.2925329 C21.2798704,22.8475036 21.0430077,23.2518635 20.7695891,23.7124317 C20.490919,24.1814649 20.1741927,24.146521 19.7606888,24.1948735 C19.1790691,24.2629328 18.8243546,24.0083709 18.5986087,23.5449585 C18.502445,23.3476205 18.5482762,23.0863543 18.5030588,22.859287 C18.4399727,22.5427607 18.662104,22.4577713 18.8759829,22.3463708 M22.0648662,25.2574782 C21.7836044,25.4678863 21.5586769,25.6360366 21.3337494,25.804187 C21.3064689,25.7697172 21.279052,25.7351796 21.2517715,25.7006421 C21.3450026,25.3096231 21.601439,25.1378835 22.0648662,25.2574782 M22.2793589,23.159154 C22.2793589,23.6046204 22.2912259,24.0427053 22.2693333,24.4790294 C22.2649685,24.5656441 22.1313623,24.6459608 22.0313112,24.758377 C21.8690605,24.4842439 22.0771424,24.1063627 21.6156931,24.0907869 L21.6156931,24.7578353 L21.2681398,24.7578353 C21.1266223,23.683989 21.1855482,23.3751151 22.2793589,23.159154 M22.3343291,25.5788127 C22.4832805,25.4835974 22.6401432,25.3922423 22.8064177,25.3352215 C22.9209957,25.2959435 23.1186428,25.2624218 23.1704075,25.3210679 C23.3061961,25.4749292 23.1452413,25.5226723 23.0174322,25.5853816 C22.8060085,25.6890619 22.6083615,25.8203722 22.3723853,25.9589964 C22.3015243,25.882472 22.2099301,25.8274152 22.2087025,25.7705975 C22.2074749,25.7060598 22.272948,25.6180906 22.3343291,25.5788127 M24.8547042,23.1061964 C24.9403649,23.0463991 25.1056846,22.9752924 25.1564263,23.0131483 C25.3016266,23.1211627 25.5884126,23.1145938 25.5423086,23.4113457 C25.5252583,23.5209177 25.5280546,23.6335371 25.5163922,23.8396788 C25.8023598,23.7724322 26.0686172,23.7607165 26.2799045,23.647623 C26.5529821,23.5014141 26.777023,23.5108273 27.0417801,23.6423408 C27.497705,23.8685955 27.9588133,24.088349 28.4321978,24.2747162 C28.6594442,24.3642429 28.7521978,24.4950115 28.7596999,24.7182864 C28.7635192,24.8308381 28.7833657,24.943593 28.7792737,25.0556707 C28.7679523,25.3667793 28.8019847,25.6325829 29.2415413,25.5514535 L29.2415413,25.8576186 C29.2183529,25.8703501 29.2089412,25.8792892 29.1984382,25.8807113 C28.4163069,25.9905542 28.4082592,25.9838499 28.3855482,25.2239565 C28.3838431,25.1691028 28.376,25.1145199 28.3630418,24.9718325 C28.147526,25.0360317 27.8828372,25.0337969 27.7829906,25.1601636 C27.508549,25.5070965 27.1633146,25.5765779 26.7655652,25.5696027 C26.5640307,25.5660135 26.362428,25.5689255 26.1364092,25.5689255 L26.1364092,25.1053776 C26.2586939,25.0327134 26.36311,24.9706813 26.467526,24.9085814 C26.374295,24.7996866 26.3016607,24.6368862 26.1836726,24.5923937 C25.8710384,24.4744244 25.5425132,24.38869 25.2135107,24.3248295 C24.7468099,24.2342192 24.5660085,24.1086652 24.3008423,23.5442813 C24.4640477,23.4131741 24.6511918,23.2481389 24.8547042,23.1061964 M37.8243887,12.3925193 C36.4810298,9.0083832 34.3380119,6.20732183 31.4299812,4.00321796 C29.0005865,2.16175815 26.2734936,0.949219981 23.2628883,0.380705157 C21.2933061,0.00878336781 19.3150622,-0.0441064569 17.3242694,0.17463123 C14.7139369,0.461495888 12.2775175,1.27468541 9.98698039,2.53598244 C9.72952089,2.67765403 9.48522421,2.84302785 9.23485763,2.99743092 C9.2389497,3.03183301 9.24297357,3.06630282 9.24706564,3.10063719 C9.70865132,2.90919092 10.0380631,3.15711621 10.3581313,3.38784045 C10.8870997,3.76910769 11.4601944,3.92026017 12.1128798,3.8567382 C12.5181995,3.81725707 12.9336812,3.88111764 13.3390009,3.84183966 C13.9176198,3.78569925 14.3840477,3.948906 14.8246957,4.32868339 C15.3271338,4.76189236 15.3876965,4.72579726 15.8625132,4.26726076 C16.0255823,4.10987798 16.2280034,3.88077903 16.4145337,3.87874741 C17.1849344,3.87035005 17.9555396,3.92181775 18.6764263,4.26123362 C18.8943973,4.36389812 19.1483103,4.42667516 19.3895379,4.43974525 C21.3866735,4.54769196 23.3854459,4.62963394 25.3823086,4.7429983 C25.930919,4.77421752 26.4942609,4.73595535 27.0161364,5.0004722 C27.4298448,5.21013532 27.8682421,5.37131046 28.2942268,5.55727135 C28.3712941,5.59086079 28.4414049,5.64016142 28.5740563,5.71634715 C27.9240307,6.06219649 27.3488218,5.62221545 26.7677477,5.71404465 C26.5898107,6.09856248 27.1014561,6.07242231 27.1499471,6.35129593 C26.9561876,6.4026959 26.7632464,6.45382499 26.5636215,6.50678253 C26.5471168,6.63849919 26.5321807,6.75870333 26.5139028,6.90525081 C26.0538858,6.94385158 25.6011662,6.98191058 25.0486684,7.02829923 C25.3584382,7.31787271 25.576,7.54405967 25.8175686,7.74126219 C26.0952839,7.96792319 26.2774493,8.24124372 26.2962728,8.59698027 C26.3041159,8.74488217 26.2981142,8.94987256 26.2083615,9.03432021 C26.042769,9.18973909 25.8295038,9.23585685 25.6110554,9.03540374 C25.2862813,8.73750062 24.9505951,8.44427022 24.5856505,8.19878288 C24.2477818,7.97151239 24.2353009,7.6668372 24.2923171,7.3421167 C24.3198704,7.1846662 24.4229906,7.02938276 24.5249514,6.89847875 C24.6561023,6.72992206 24.6175004,6.58892767 24.4656164,6.50278701 C24.3772958,6.45267373 24.2080205,6.45111616 24.1224962,6.50359966 C23.6787792,6.7763107 23.2544996,7.08010552 22.8135107,7.35735385 C22.6968866,7.43062759 22.536682,7.50132794 22.4103734,7.48223072 C21.8506462,7.39757991 21.2344484,7.53762621 20.7584041,7.05112108 C20.606861,7.2542153 20.4742779,7.42026633 20.3545166,7.59491787 C20.077688,7.99860065 20.2629906,8.38183178 20.7619506,8.44501514 C21.2576368,8.50792763 21.7540733,8.56508385 22.2487366,8.63517472 C22.3548576,8.6502087 22.4838943,8.68237601 22.5517545,8.75402445 C22.7917545,9.00723195 23.0096573,9.2809588 23.2547724,9.56904243 C23.1825473,9.65200022 23.1151645,9.72920176 22.9856505,9.8779163 C22.7891628,9.63161631 22.6219335,9.42195319 22.4641159,9.22414118 C22.1520955,9.39269787 22.1294527,9.56105139 22.3293504,9.7841232 C22.4402455,9.90791654 22.5906292,10.0574437 22.5971765,10.2010792 C22.6144314,10.5792313 22.5628713,10.9605663 22.5366138,11.3729173 C22.1827178,11.3729173 21.8657187,11.3864614 21.5504246,11.3684477 C21.3095379,11.3547004 21.2361535,11.4314956 21.1867758,11.6773893 C21.0815413,12.2007345 21.2420188,12.5337846 21.7417971,12.7221834 C21.8673555,12.7694524 21.9920955,12.8411686 22.09126,12.930289 C22.2771083,13.0974913 22.4439966,13.2854838 22.6339369,13.4802484 C22.2609446,13.6799565 22.0020529,13.666277 21.711584,13.4185548 C21.2215584,13.0004476 20.7033657,12.6092931 20.1635533,12.2572135 C19.9804331,12.137822 19.6954203,12.1472352 19.4595124,12.1573932 C19.4200921,12.1590863 19.3855823,12.465319 19.3647809,12.6326567 C19.3510725,12.7436509 19.3754203,12.858776 19.3661449,12.9707182 C19.3444569,13.2327294 19.4118397,13.4451691 19.612965,13.6364799 C19.9648832,13.9710876 20.2896573,14.3337317 20.6306633,14.6799873 C21.0182506,15.0737152 20.9087877,15.5789112 20.9473214,16.0503823 C20.9499812,16.0830237 20.9011492,16.12562 20.8681398,16.1543335 C20.5171083,16.4583992 20.1666223,16.7519005 19.6958977,16.8790799 C19.3064007,16.9843177 18.9329991,17.148608 18.5919932,17.2724014 C18.4742097,17.5604173 18.9369548,17.9355219 18.2916351,18.1034014 C18.2182506,17.8348213 18.1505951,17.5771443 18.0759829,17.3215666 C18.0592055,17.2642072 18.0314476,17.1941163 17.9858892,17.1635066 C17.6160341,16.915175 17.1549258,17.1285627 17.1379437,17.5700336 C17.1208934,18.0138747 17.1531526,18.4420724 17.6326752,18.6948735 C17.8589668,18.8141296 18.0452924,19.0100454 18.2445081,19.1774509 C18.4191032,19.3242015 18.5503905,19.9057864 18.4481569,20.0471194 C18.0480887,20.6002616 17.347867,20.6160406 16.9162217,20.0907315 C16.7186428,19.8503232 16.4999216,19.6271837 16.2786087,19.3827122 C16.0036897,19.9473669 16.0206718,20.0886999 16.3521978,20.5501484 C16.8203308,21.2017564 17.2787792,21.8602043 17.746162,22.5123541 C17.8813367,22.7008884 17.9485149,22.881093 17.7522319,23.100237 C17.0775175,22.4577713 16.4150793,21.811784 15.7329309,21.1871965 C15.5372617,21.0080077 15.4715158,20.8250265 15.4794953,20.5702614 C15.4964774,20.029038 15.495318,19.4865956 15.4770401,18.9454399 C15.4727434,18.8179897 15.4019506,18.6613518 15.3087195,18.5736536 C14.8637067,18.1549368 14.4047809,17.7503737 13.940399,17.3527181 C13.8338005,17.2613629 13.6923512,17.1804367 13.5563581,17.1582921 C13.209555,17.1018808 12.8497937,17.0225122 12.5085831,17.0630091 C12.1629395,17.1041156 11.7097425,17.1821298 11.5255311,17.4161723 C11.247202,17.7698772 11.1251901,18.2632899 11.0044058,18.715122 C10.8975345,19.1152156 10.9100835,19.545648 10.8182847,19.951227 C10.7557442,20.2277981 10.6335277,20.5019313 10.4857357,20.7459288 C10.2766991,21.0908977 9.9476965,21.0634031 9.72263257,20.7096305 C9.52853197,20.4046167 9.33552259,20.0987903 9.14653708,19.7905936 C8.70916283,19.0771566 8.19028815,18.412343 8.42401364,17.4627641 C8.54370673,16.976259 8.14889003,16.5818539 7.62919693,16.5112213 C6.3588133,16.3385337 5.07949531,16.218465 3.81913725,15.9924812 C3.34977664,15.9083044 2.90012617,15.6232005 2.4903052,15.3559748 C2.35601705,15.268412 2.37640921,14.9478225 2.3243035,14.7342316 C2.31939301,14.7141862 2.3017971,14.6972561 2.28931628,14.6793101 C1.7703052,14.6030567 1.7700324,14.6031921 1.758711,15.1039186 C1.75639216,15.2054995 1.72720205,15.3179158 1.76116624,15.4060204 C1.81068031,15.5346219 1.87847229,15.6926141 1.98704859,15.7557975 C2.3586087,15.9720972 2.74278602,16.1723472 3.13835294,16.3415134 C3.63444842,16.5537499 4.1473896,16.7271147 4.65105541,16.9223534 C4.76426939,16.9662363 4.94786701,17.0159433 4.96246206,17.0896234 C4.99833589,17.271047 5.04532651,17.4670982 4.81241944,17.6226526 C4.00280307,18.1631988 3.20798636,18.7261605 2.41657971,19.29305 C1.93494288,19.638019 1.15090196,19.5954904 0.786775789,19.1442678 C0.674584825,19.0051695 0.636323956,18.7750548 0.63543734,18.5863851 C0.633459506,18.1797903 0.398915601,17.9387048 0.111652174,17.6854973 C-0.0682625746,18.7545354 -0.0470520034,18.9605416 0.295727195,19.5709078 C0.56341688,20.0477289 0.867253197,20.1814095 1.41361296,20.0658103 C1.88010912,19.967209 2.34449105,19.8552668 2.81487468,19.7808418 C3.00917988,19.7501644 3.21671611,19.8021061 3.41831884,19.8164629 C3.42520716,19.8574339 3.43202728,19.8982694 3.4389156,19.9392404 C3.21923956,20.2522452 3.00379199,20.5683652 2.77906905,20.8777809 C2.12351918,21.7805648 1.57129412,22.7672546 0.681541347,23.4816397 C0.489077579,23.6361782 0.475028133,23.7854345 0.532317136,24.0099285 C1.00317818,25.856535 1.69937596,27.6069783 2.66640068,29.2578722 C3.587185,30.830007 4.70609378,32.2440818 6.01910315,33.5000967 C7.38237681,34.80399 8.91199318,35.8877912 10.5979949,36.7580692 C12.3876624,37.681982 14.272607,38.3247864 16.2542609,38.6532315 C18.8810298,39.0884044 21.5059574,39.0408645 24.1056505,38.4163447 C26.8823939,37.7494318 29.395676,36.5468485 31.6485661,34.794035 C33.5208934,33.3374317 35.0788133,31.6076432 36.3140733,29.5970172 C37.8016095,27.1756655 38.720757,24.5531835 39.038029,21.7278781 C39.3986087,18.5173777 39.018046,15.3995192 37.8243887,12.3925193" id="Fill-5"></path>
                    </g>
                </g>
            </g>
        </g>
    </g>
</svg>