<?xml version="1.0" encoding="UTF-8" standalone="no"?>
<svg width="40px" height="40px" viewBox="0 0 40 40" version="1.1" xmlns="http://www.w3.org/2000/svg" xmlns:xlink="http://www.w3.org/1999/xlink">
    <!-- Generator: Sketch 39.1 (31720) - http://www.bohemiancoding.com/sketch -->
    <title>Page 1</title>
    <desc>Created with Sketch.</desc>
    <defs>
        <circle id="path-1" cx="20" cy="20" r="20"></circle>
    </defs>
    <g id="Symbols" stroke="none" stroke-width="1" fill="none" fill-rule="evenodd">
        <g id="Navigation-Region-Select---Dropdown-v4b-(Mobile)" transform="translate(-227.000000, -159.000000)">
            <g id="Group-6" transform="translate(207.000000, 159.000000)">
                <g id="Page-1" transform="translate(20.000000, 0.000000)">
                    <mask id="mask-2" fill="white">
                        <use xlink:href="#path-1"></use>
                    </mask>
                    <use id="Mask" fill="#D8D8D8" xlink:href="#path-1"></use>
                    <g mask="url(#mask-2)">
                        <polygon id="Fill-1" fill="#EE2E24" points="0 20.0009333 40 20.0009333 40 0.000933333333 0 0.000933333333"></polygon>
                        <polygon id="Fill-2" fill="#FFFFFF" points="0 39.9876 40 39.9876 40 19.9876 0 19.9876"></polygon>
                        <g id="Group-15" transform="translate(11.466667, 2.120933)" fill="#FFFFFF">
                            <path d="M3.70266667,7.87906667 C3.70266667,4.04306667 6.74533333,0.937733333 10.5493333,0.7964 C9.76133333,0.517733333 8.91733333,0.3564 8.03333333,0.3564 C3.88,0.3564 0.512,3.72573333 0.512,7.87906667 C0.512,12.0324 3.88,15.4004 8.03333333,15.4004 C8.91733333,15.4004 9.76133333,15.2404 10.5493333,14.9604 C6.74533333,14.8190667 3.70266667,11.7137333 3.70266667,7.87906667" id="Fill-3"></path>
                            <polygon id="Fill-5" points="8.96426667 8.06 7.9416 7.276 6.9216 8.06 7.31493333 6.796 6.28826667 6.01733333 7.55226667 6.02 7.9416 4.75466667 8.3296 6.02 9.59493333 6.01733333 8.57093333 6.796"></polygon>
                            <polygon id="Fill-7" points="16.98 8.06 15.9586667 7.276 14.9373333 8.06 15.3306667 6.796 14.3066667 6.01733333 15.5706667 6.02 15.9573333 4.75466667 16.348 6.02 17.612 6.01733333 16.5866667 6.796"></polygon>
                            <polygon id="Fill-9" points="12.9773333 5.0848 11.9546667 4.3008 10.932 5.0848 11.3253333 3.82213333 10.3013333 3.04213333 11.5666667 3.0448 11.9546667 1.77946667 12.3426667 3.0448 13.608 3.0408 12.5813333 3.82213333"></polygon>
                            <polygon id="Fill-11" points="10.4642667 12.8204 9.4416 12.0364 8.4216 12.8204 8.81493333 11.5564 7.78826667 10.7777333 9.0536 10.7817333 9.4416 9.51506667 9.8296 10.7804 11.0962667 10.7777333 10.0709333 11.5564"></polygon>
                            <polygon id="Fill-13" points="15.4812 12.8204 14.4585333 12.0364 13.4385333 12.8204 13.8305333 11.5564 12.8052 10.7777333 14.0705333 10.7817333 14.4585333 9.51506667 14.8465333 10.7804 16.1118667 10.7777333 15.0865333 11.5564"></polygon>
                        </g>
                    </g>
                </g>
            </g>
        </g>
    </g>
</svg>