<?xml version="1.0" encoding="UTF-8" standalone="no"?>
<svg width="20px" height="20px" viewBox="0 0 20 20" version="1.1" xmlns="http://www.w3.org/2000/svg" xmlns:xlink="http://www.w3.org/1999/xlink">
    <!-- Generator: Sketch 39.1 (31720) - http://www.bohemiancoding.com/sketch -->
    <title>Page 1</title>
    <desc>Created with Sketch.</desc>
    <defs>
        <circle id="path-1" cx="10" cy="10" r="10"></circle>
    </defs>
    <g id="Symbols" stroke="none" stroke-width="1" fill="none" fill-rule="evenodd">
        <g id="Navigation-Login-(Full-Web)" transform="translate(-281.000000, -30.000000)">
            <g id="Page-1" transform="translate(281.000000, 30.000000)">
                <mask id="mask-2" fill="white">
                    <use xlink:href="#path-1"></use>
                </mask>
                <use id="Mask" fill="#D8D8D8" xlink:href="#path-1"></use>
                <g mask="url(#mask-2)">
                    <polygon id="Fill-1" fill="#EE2E24" points="0 10.0004667 20 10.0004667 20 0.000466666667 0 0.000466666667"></polygon>
                    <polygon id="Fill-2" fill="#FFFFFF" points="0 19.9938 20 19.9938 20 9.9938 0 9.9938"></polygon>
                    <g id="Group-15" transform="translate(5.333333, 0.660467)" fill="#FFFFFF">
                        <path d="M2.25133333,4.33953333 C2.25133333,2.42153333 3.77266667,0.868866667 5.67466667,0.7982 C5.28066667,0.658866667 4.85866667,0.5782 4.41666667,0.5782 C2.34,0.5782 0.656,2.26286667 0.656,4.33953333 C0.656,6.4162 2.34,8.1002 4.41666667,8.1002 C4.85866667,8.1002 5.28066667,8.0202 5.67466667,7.8802 C3.77266667,7.80953333 2.25133333,6.25686667 2.25133333,4.33953333" id="Fill-3"></path>
                        <polygon id="Fill-5" points="4.88213333 4.43 4.3708 4.038 3.8608 4.43 4.05746667 3.798 3.54413333 3.40866667 4.17613333 3.41 4.3708 2.77733333 4.5648 3.41 5.19746667 3.40866667 4.68546667 3.798"></polygon>
                        <polygon id="Fill-7" points="8.89 4.43 8.37933333 4.038 7.86866667 4.43 8.06533333 3.798 7.55333333 3.40866667 8.18533333 3.41 8.37866667 2.77733333 8.574 3.41 9.206 3.40866667 8.69333333 3.798"></polygon>
                        <polygon id="Fill-9" points="6.88866667 2.9424 6.37733333 2.5504 5.866 2.9424 6.06266667 2.31106667 5.55066667 1.92106667 6.18333333 1.9224 6.37733333 1.28973333 6.57133333 1.9224 7.204 1.9204 6.69066667 2.31106667"></polygon>
                        <polygon id="Fill-11" points="5.63213333 6.8102 5.1208 6.4182 4.6108 6.8102 4.80746667 6.1782 4.29413333 5.78886667 4.9268 5.79086667 5.1208 5.15753333 5.3148 5.7902 5.94813333 5.78886667 5.43546667 6.1782"></polygon>
                        <polygon id="Fill-13" points="8.1406 6.8102 7.62926667 6.4182 7.11926667 6.8102 7.31526667 6.1782 6.8026 5.78886667 7.43526667 5.79086667 7.62926667 5.15753333 7.82326667 5.7902 8.45593333 5.78886667 7.94326667 6.1782"></polygon>
                    </g>
                </g>
            </g>
        </g>
    </g>
</svg>