<?xml version="1.0" encoding="UTF-8" standalone="no"?>
<svg width="50px" height="50px" viewBox="0 0 50 50" version="1.1" xmlns="http://www.w3.org/2000/svg" xmlns:xlink="http://www.w3.org/1999/xlink">
    <!-- Generator: Sketch 39.1 (31720) - http://www.bohemiancoding.com/sketch -->
    <title>Page 1</title>
    <desc>Created with Sketch.</desc>
    <defs>
        <circle id="path-1" cx="25" cy="25" r="25"></circle>
    </defs>
    <g id="Symbols" stroke="none" stroke-width="1" fill="none" fill-rule="evenodd">
        <g id="Navigation-Region-Select---Dropdown-v4b-(Full-Web)" transform="translate(-437.000000, -121.000000)">
            <g id="Page-1" transform="translate(437.000000, 121.000000)">
                <mask id="mask-2" fill="white">
                    <use xlink:href="#path-1"></use>
                </mask>
                <use id="Mask" fill="#D8D8D8" xlink:href="#path-1"></use>
                <g mask="url(#mask-2)">
                    <polygon id="Fill-1" fill="#EE2E24" points="0 25.0011667 50 25.0011667 50 0.00116666667 0 0.00116666667"></polygon>
                    <polygon id="Fill-2" fill="#FFFFFF" points="0 49.9845 50 49.9845 50 24.9845 0 24.9845"></polygon>
                    <g id="Group-15" transform="translate(14.333333, 2.651167)" fill="#FFFFFF">
                        <path d="M4.62833333,9.84883333 C4.62833333,5.05383333 8.43166667,1.17216667 13.1866667,0.9955 C12.2016667,0.647166667 11.1466667,0.4455 10.0416667,0.4455 C4.85,0.4455 0.64,4.65716667 0.64,9.84883333 C0.64,15.0405 4.85,19.2505 10.0416667,19.2505 C11.1466667,19.2505 12.2016667,19.0505 13.1866667,18.7005 C8.43166667,18.5238333 4.62833333,14.6421667 4.62833333,9.84883333" id="Fill-3"></path>
                        <polygon id="Fill-5" points="11.2053333 10.075 9.927 9.095 8.652 10.075 9.14366667 8.495 7.86033333 7.52166667 9.44033333 7.525 9.927 5.94333333 10.412 7.525 11.9936667 7.52166667 10.7136667 8.495"></polygon>
                        <polygon id="Fill-7" points="21.225 10.075 19.9483333 9.095 18.6716667 10.075 19.1633333 8.495 17.8833333 7.52166667 19.4633333 7.525 19.9466667 5.94333333 20.435 7.525 22.015 7.52166667 20.7333333 8.495"></polygon>
                        <polygon id="Fill-9" points="16.2216667 6.356 14.9433333 5.376 13.665 6.356 14.1566667 4.77766667 12.8766667 3.80266667 14.4583333 3.806 14.9433333 2.22433333 15.4283333 3.806 17.01 3.801 15.7266667 4.77766667"></polygon>
                        <polygon id="Fill-11" points="13.0803333 16.0255 11.802 15.0455 10.527 16.0255 11.0186667 14.4455 9.73533333 13.4721667 11.317 13.4771667 11.802 11.8938333 12.287 13.4755 13.8703333 13.4721667 12.5886667 14.4455"></polygon>
                        <polygon id="Fill-13" points="19.3515 16.0255 18.0731667 15.0455 16.7981667 16.0255 17.2881667 14.4455 16.0065 13.4721667 17.5881667 13.4771667 18.0731667 11.8938333 18.5581667 13.4755 20.1398333 13.4721667 18.8581667 14.4455"></polygon>
                    </g>
                </g>
            </g>
        </g>
    </g>
</svg>