<?xml version="1.0" encoding="UTF-8"?>
<svg width="177px" height="60px" viewBox="0 0 177 60" version="1.1" xmlns="http://www.w3.org/2000/svg" xmlns:xlink="http://www.w3.org/1999/xlink">
    <!-- Generator: Sketch 40 (33762) - http://www.bohemiancoding.com/sketch -->
    <title>Group</title>
    <desc>Created with Sketch.</desc>
    <defs></defs>
    <g id="Subscription" stroke="none" stroke-width="1" fill="none" fill-rule="evenodd">
        <g id="Subscribe-00-(Full-Web)" transform="translate(-632.000000, -123.000000)" fill="#FFFFFF">
            <g id="Group" transform="translate(632.000000, 123.000000)">
                <path d="M59.235566,40.0782546 L55.0488904,40.0782546 L52.5406872,43.4658951 L60.9573235,49.6381436 L61.9420624,48.8847875 C62.5577069,48.4094867 63.4482712,48.1291143 64.3233346,48.1291143 C64.8506539,48.1291143 65.6221838,48.2354125 66.3010014,48.7312778 C67.6168137,49.6966511 67.9107438,51.6505689 67.428757,52.9067416 L66.9853759,54.062409 L74.9460551,59.8607311 L89.6858437,40.0782546 L85.5576617,40.0782546 L59.235566,40.0782546 Z" id="Fill-1"></path>
                <path d="M9.68626801,33.795537 L9.68626801,31.9965771 C9.05044317,31.1571977 7.83962676,30.7073853 6.59868618,30.7073853 C5.08516568,30.7073853 3.84393263,31.5169317 3.84393263,32.8962019 C3.84393263,34.2748928 5.08516568,35.0540269 6.59868618,35.0540269 C7.83962676,35.0540269 9.05044317,34.6346268 9.68626801,33.795537 L9.68626801,33.795537 Z M9.68626801,37.2729662 L9.68626801,35.7442413 C8.68719825,36.9436444 6.96222357,37.6327002 5.05474903,37.6327002 C2.72407369,37.6327002 2.92467738e-05,36.0738527 2.92467738e-05,32.8365359 C2.92467738e-05,29.4187727 2.72407369,28.1594139 5.05474903,28.1594139 C7.02276439,28.1594139 8.71761489,28.7890933 9.68626801,29.9282511 L9.68626801,28.0991686 C9.68626801,26.630689 8.41461832,25.6713982 6.47760454,25.6713982 C4.93395986,25.6713982 3.48068771,26.2709549 2.27016377,27.3797005 L0.756350798,24.7118177 C2.54245123,23.1231372 4.8430024,22.4337917 7.14384603,22.4337917 C10.5034229,22.4337917 13.5608805,23.7528166 13.5608805,27.9193016 L13.5608805,37.2729662 L9.68626801,37.2729662 Z" id="Fill-4"></path>
                <path d="M16.0731491,35.3844493 L17.7375829,32.6261986 C18.8276102,33.6454451 20.976663,34.6345689 22.7931801,34.6345689 C24.4581989,34.6345689 25.2452296,34.0048895 25.2452296,33.105844 C25.2452296,30.7377397 16.5878923,32.6864439 16.5878923,26.9906548 C16.5878923,24.5623051 18.706821,22.4337338 22.5814335,22.4337338 C25.0334829,22.4337338 27.0009133,23.2734029 28.453893,24.4122711 L26.9102484,27.1105661 C26.0319678,26.211231 24.3672414,25.4315176 22.5814335,25.4315176 C21.1889946,25.4315176 20.2808823,26.031364 20.2808823,26.8406208 C20.2808823,28.9689024 28.9683438,27.1705218 28.9683438,33.016345 C28.9683438,35.6842277 26.6677926,37.6326423 22.6112652,37.6326423 C20.0682583,37.6326423 17.6167937,36.7932629 16.0731491,35.3844493" id="Fill-6"></path>
                <polygon id="Fill-8" points="31.7830532 37.2730241 35.627834 37.2730241 35.627834 22.7935837 31.7830532 22.7935837"></polygon>
                <path d="M31.4198083,18.9564205 C31.4198083,17.6970617 32.4490022,16.7079378 33.6902353,16.7079378 C34.9613,16.7079378 35.9910789,17.6970617 35.9910789,18.9564205 C35.9910789,20.2157793 34.9613,21.2350258 33.6902353,21.2350258 C32.4490022,21.2350258 31.4198083,20.2157793 31.4198083,18.9564205 L31.4198083,18.9564205 Z" id="Path"></path>
                <path d="M48.2200321,33.795537 L48.2200321,31.9965771 C47.5842073,31.1571977 46.3733909,30.7073853 45.1324503,30.7073853 C43.6189298,30.7073853 42.3776967,31.5169317 42.3776967,32.8962019 C42.3776967,34.2748928 43.6189298,35.0540269 45.1324503,35.0540269 C46.3733909,35.0540269 47.5842073,34.6346268 48.2200321,33.795537 L48.2200321,33.795537 Z M48.2200321,37.2729662 L48.2200321,35.7442413 C47.2209624,36.9436444 45.4959877,37.6327002 43.5885132,37.6327002 C41.2578378,37.6327002 38.5337934,36.0738527 38.5337934,32.8365359 C38.5337934,29.4187727 41.2578378,28.1594139 43.5885132,28.1594139 C45.5565285,28.1594139 47.251379,28.7890933 48.2200321,29.9282511 L48.2200321,28.0991686 C48.2200321,26.630689 46.9483824,25.6713982 45.0113687,25.6713982 C43.467724,25.6713982 42.0144518,26.2709549 40.8039279,27.3797005 L39.2901149,24.7118177 C41.0762153,23.1231372 43.3767665,22.4337917 45.6776102,22.4337917 C49.037187,22.4337917 52.0946446,23.7528166 52.0946446,27.9193016 L52.0946446,37.2729662 L48.2200321,37.2729662 Z" id="Fill-10"></path>
                <path d="M62.6138022,34.2452625 C64.8236884,34.2452625 66.3067923,32.536381 66.3067923,30.0182426 C66.3067923,27.5302269 64.8236884,25.8213453 62.6138022,25.8213453 C61.3421526,25.8213453 59.9500062,26.5408134 59.2840571,27.4998146 L59.2840571,32.6261696 C59.9500062,33.5562067 61.3421526,34.2452625 62.6138022,34.2452625 L62.6138022,34.2452625 Z M55.4395688,37.2728793 L55.4395688,17.2775168 L59.2840571,17.2775168 L59.2840571,24.6520648 C60.4346252,23.1534626 62.0689349,22.4337048 63.7939095,22.4337048 C67.5176087,22.4337048 70.2723622,25.3115773 70.2723622,30.0182426 C70.2723622,34.8749419 67.4874845,37.6326134 63.7939095,37.6326134 C62.0385182,37.6326134 60.4346252,36.8528999 59.2840571,35.4139637 L59.2840571,37.2728793 L55.4395688,37.2728793 Z" id="Fill-11"></path>
                <path d="M146.456638,30.0181847 C146.456638,25.5814647 149.726135,22.4336469 154.205863,22.4336469 C157.20278,22.4336469 159.018712,23.7231284 159.987657,25.0418636 L157.47536,27.3798453 C156.778994,26.3608885 155.719676,25.8212874 154.387485,25.8212874 C152.056518,25.8212874 150.422208,27.5000463 150.422208,30.0181847 C150.422208,32.536323 152.056518,34.2452046 154.387485,34.2452046 C155.719676,34.2452046 156.778994,33.6453582 157.47536,32.656524 L159.987657,34.9945057 C159.018712,36.3132409 157.20278,37.6328451 154.205863,37.6328451 C149.726135,37.6328451 146.456638,34.4850273 146.456638,30.0181847" id="Fill-12"></path>
                <path d="M168.690474,25.551371 C166.298965,25.551371 165.270063,27.2005865 165.118565,28.6389434 L172.322923,28.6389434 C172.201841,27.2602526 171.232895,25.551371 168.690474,25.551371 M161.122871,30.0182136 C161.122871,25.8213163 164.270994,22.4336759 168.690474,22.4336759 C173.079537,22.4336759 176.016205,25.671572 176.016205,30.3779477 L176.016205,31.2775724 L165.148689,31.2775724 C165.420977,33.0458304 166.874249,34.5151789 169.356715,34.5151789 C170.597656,34.5151789 172.292506,34.0051212 173.231035,33.1057861 L174.956595,35.6239244 C173.503322,36.9435286 171.203064,37.6325844 168.932344,37.6325844 C164.483033,37.6325844 161.122871,34.6649233 161.122871,30.0182136" id="Fill-13"></path>
                <path d="M79.9259324,25.9770563 C77.6879693,25.9712635 75.8626782,27.7693544 75.8571213,29.9851077 C75.8512719,32.2005712 77.6666191,34.0076411 79.9042897,34.0140132 C82.140498,34.019806 83.9657891,32.2222943 83.9719309,30.0071204 C83.9780728,27.7910775 82.1624331,25.9828491 79.9259324,25.9770563 M79.8946383,37.6629098 C75.6246094,37.6524827 72.1617915,34.2031487 72.1731978,29.9758392 C72.184604,25.747371 75.6664323,22.3171533 79.9355838,22.328739 C84.2044428,22.340035 87.6684306,25.7887897 87.6576093,30.0169682 C87.6459106,34.2442777 84.1623274,37.6742058 79.8946383,37.6629098" id="Fill-14"></path>
                <path d="M108.159071,26.7851835 C106.352498,28.0940709 105.958544,30.6133678 107.27962,32.4013214 C108.600405,34.1892749 111.143996,34.5797109 112.950277,33.2719821 C114.755388,31.9639636 115.149927,29.4455355 113.829435,27.6570027 C112.508651,25.8681803 109.964474,25.477165 108.159071,26.7851835 M115.12536,36.2167615 C111.679797,38.7140457 106.826588,37.9679307 104.306393,34.5556707 C101.785614,31.1428315 102.537841,26.3368193 105.983696,23.8406936 C109.429258,21.344568 114.28276,22.0898141 116.804417,25.5023637 C119.324611,28.9146237 118.570629,33.7215048 115.12536,36.2167615" id="Fill-15"></path>
                <polygon id="Fill-16" points="98.6053199 37.2729083 95.2746973 32.3860863 91.915413 37.2729083 87.6471389 37.2729083 92.8539419 29.8384045 87.949843 22.7934679 92.2485337 22.7934679 95.2746973 27.2301878 98.2719066 22.7934679 102.57089 22.7934679 97.6972076 29.8384045 102.903426 37.2729083"></polygon>
                <polygon id="Fill-17" points="139.738449 37.2715759 143.582353 37.2715759 143.582353 22.794163 139.738449 22.794163"></polygon>
                <path d="M139.375789,18.957579 C139.375789,17.6987995 140.404398,16.7096757 141.645339,16.7096757 C142.916696,16.7096757 143.945598,17.6987995 143.945598,18.957579 C143.945598,20.2163586 142.916696,21.2356051 141.645339,21.2356051 C140.404398,21.2356051 139.375789,20.2163586 139.375789,18.957579 L139.375789,18.957579 Z" id="Path"></path>
                <path d="M136.37393,20.0962735 C136.888673,20.0962735 137.312751,20.1863518 137.615163,20.3960518 L138.402486,17.5784247 C137.70612,17.2186907 136.737175,16.978868 135.617023,16.978868 C132.802606,16.978868 130.713509,18.8073713 130.713509,22.1944325 L130.713509,22.7948581 L128.720634,22.7948581 L128.587562,22.7948581 L125.753549,22.7948581 L125.753549,22.1944325 C125.753549,20.7856189 126.480624,20.0962735 127.570066,20.0962735 C128.266432,20.0962735 128.781175,20.3059735 129.174837,20.6657076 L130.627524,18.3575589 C129.750121,17.3687247 128.236308,16.978868 126.813452,16.978868 C123.877661,16.978868 121.909938,18.9272826 121.909938,22.1944325 L121.909938,22.7948581 L119.488598,22.7948581 L119.488598,26.1213844 L121.909938,26.1213844 L121.909938,37.2699539 L125.753549,37.2699539 L125.753549,26.1213844 L128.587562,26.1213844 L128.720634,26.1213844 L130.713509,26.1213844 L130.713509,37.2699539 L134.557413,37.2699539 L134.557413,26.1213844 L137.525668,26.1213844 L137.525668,22.7948581 L134.557413,22.7948581 L134.557413,22.1944325 C134.557413,20.7856189 135.284195,20.0962735 136.37393,20.0962735" id="Fill-18"></path>
                <path d="M78.685255,20.0930295 L79.4155469,20.0930295 L100.473224,20.0930295 L104.652002,20.0930295 L107.403539,16.394025 L99.3185609,10.4731848 L98.3194911,11.3739681 C97.6523723,11.9778695 96.9197406,12.2828614 96.1420689,12.2828614 C95.4211359,12.2828614 94.6744658,12.0149436 93.984242,11.5092305 C93.2884612,10.999752 91.7834223,9.57500825 92.8401082,7.36244108 L93.417732,6.15145229 L84.9949538,-0.000231712755 L69.9284787,20.0930295 L78.685255,20.0930295 Z" id="Fill-19"></path>
            </g>
        </g>
    </g>
</svg>