<?xml version="1.0" encoding="UTF-8"?>
<svg width="133px" height="45px" viewBox="0 0 133 45" version="1.1" xmlns="http://www.w3.org/2000/svg" xmlns:xlink="http://www.w3.org/1999/xlink">
    <!-- Generator: Sketch 40 (33762) - http://www.bohemiancoding.com/sketch -->
    <title>Group 2</title>
    <desc>Created with Sketch.</desc>
    <defs></defs>
    <g id="Subscription" stroke="none" stroke-width="1" fill="none" fill-rule="evenodd">
        <g id="Subscribe-00-(Mobile)" transform="translate(-121.000000, -124.000000)" fill="#FFFFFF">
            <g id="Group-2" transform="translate(121.000000, 124.000000)">
                <path d="M44.43207,30.0586909 L41.291682,30.0586909 L39.4103011,32.5994213 L45.723545,37.2286077 L46.4621888,36.6635906 C46.9239783,36.307115 47.5919826,36.0968357 48.2483599,36.0968357 C48.6438974,36.0968357 49.2226151,36.1765594 49.7317901,36.5484583 C50.7187692,37.2724883 50.9392436,38.7379266 50.5777095,39.6800562 L50.2451333,40.5468067 L56.2163678,44.8955483 L67.2725519,30.0586909 L64.1760394,30.0586909 L44.43207,30.0586909 Z" id="Fill-1"></path>
                <path d="M7.26558329,25.3466528 L7.26558329,23.9974328 C6.78865674,23.3678983 5.88043415,23.030539 4.94961568,23.030539 C3.81433744,23.030539 2.8832996,23.6376988 2.8832996,24.6721514 C2.8832996,25.7061696 3.81433744,26.2905202 4.94961568,26.2905202 C5.88043415,26.2905202 6.78865674,25.9759701 7.26558329,25.3466528 L7.26558329,25.3466528 Z M7.26558329,27.9547246 L7.26558329,26.808181 C6.51618996,27.7077333 5.22230184,28.2245252 3.79152219,28.2245252 C2.04330339,28.2245252 2.19377441e-05,27.0553895 2.19377441e-05,24.6274019 C2.19377441e-05,22.0640795 2.04330339,21.1195604 3.79152219,21.1195604 C5.26771297,21.1195604 6.53900522,21.59182 7.26558329,22.4461884 L7.26558329,21.0743764 C7.26558329,19.9730168 6.31173019,19.2535486 4.85879342,19.2535486 C3.70091931,19.2535486 2.61083282,19.7032162 1.70282961,20.5347754 L0.567331991,18.5338633 C1.90707,17.3423529 3.63269293,16.8253438 5.35853523,16.8253438 C7.87852385,16.8253438 10.1718956,17.8146124 10.1718956,20.9394762 L10.1718956,27.9547246 L7.26558329,27.9547246 Z" id="Fill-4"></path>
                <path d="M12.0563258,26.538337 L13.3048028,24.469649 C14.1224225,25.2340838 15.734408,25.9759267 17.0969612,25.9759267 C18.345877,25.9759267 18.9362217,25.5036671 18.9362217,24.829383 C18.9362217,23.0533047 12.4424301,24.5148329 12.4424301,20.2429911 C12.4424301,18.4217288 14.0318197,16.8253003 16.938132,16.8253003 C18.7773924,16.8253003 20.2531444,17.4550522 21.3430115,18.3092033 L20.1851374,20.3329246 C19.526347,19.6584232 18.2776506,19.0736382 16.938132,19.0736382 C15.893676,19.0736382 15.212509,19.523523 15.212509,20.1304656 C15.212509,21.7266768 21.7288964,20.3778913 21.7288964,24.7622587 C21.7288964,26.7631708 20.0032735,28.2244817 16.9605085,28.2244817 C15.0530216,28.2244817 13.2141999,27.5949471 12.0563258,26.538337" id="Fill-6"></path>
                <polygon id="Fill-8" points="23.8401849 27.9547681 26.7241207 27.9547681 26.7241207 17.0951878 23.8401849 17.0951878"></polygon>
                <path d="M23.5677181,14.2173154 C23.5677181,13.2727962 24.3397073,12.5309534 25.2707452,12.5309534 C26.2241595,12.5309534 26.9965875,13.2727962 26.9965875,14.2173154 C26.9965875,15.1618345 26.2241595,15.9262693 25.2707452,15.9262693 C24.3397073,15.9262693 23.5677181,15.1618345 23.5677181,14.2173154 L23.5677181,14.2173154 Z" id="Path"></path>
                <path d="M36.1694163,25.3466528 L36.1694163,23.9974328 C35.6924897,23.3678983 34.7842671,23.030539 33.8534486,23.030539 C32.7181704,23.030539 31.7871326,23.6376988 31.7871326,24.6721514 C31.7871326,25.7061696 32.7181704,26.2905202 33.8534486,26.2905202 C34.7842671,26.2905202 35.6924897,25.9759701 36.1694163,25.3466528 L36.1694163,25.3466528 Z M36.1694163,27.9547246 L36.1694163,26.808181 C35.4200229,27.7077333 34.1261348,28.2245252 32.6953552,28.2245252 C30.9471364,28.2245252 28.9038549,27.0553895 28.9038549,24.6274019 C28.9038549,22.0640795 30.9471364,21.1195604 32.6953552,21.1195604 C34.1715459,21.1195604 35.4428382,21.59182 36.1694163,22.4461884 L36.1694163,21.0743764 C36.1694163,19.9730168 35.2155632,19.2535486 33.7626264,19.2535486 C32.6047523,19.2535486 31.5146658,19.7032162 30.6066626,20.5347754 L29.471165,18.5338633 C30.810903,17.3423529 32.5365259,16.8253438 34.2623682,16.8253438 C36.7823568,16.8253438 39.0757285,17.8146124 39.0757285,20.9394762 L39.0757285,27.9547246 L36.1694163,27.9547246 Z" id="Fill-10"></path>
                <path d="M46.9660549,25.6839469 C48.6236708,25.6839469 49.7361338,24.4022857 49.7361338,22.5136819 C49.7361338,20.6476702 48.6236708,19.366009 46.9660549,19.366009 C46.0122018,19.366009 44.9679652,19.9056101 44.4684428,20.6248609 L44.4684428,24.4696272 C44.9679652,25.167155 46.0122018,25.6839469 46.9660549,25.6839469 L46.9660549,25.6839469 Z M41.5847264,27.9546595 L41.5847264,12.9581376 L44.4684428,12.9581376 L44.4684428,18.4890486 C45.3314736,17.3650969 46.5573547,16.8252786 47.8512429,16.8252786 C50.6443564,16.8252786 52.7106725,18.9836829 52.7106725,22.5136819 C52.7106725,26.1562064 50.6217605,28.22446 47.8512429,28.22446 C46.5345395,28.22446 45.3314736,27.639675 44.4684428,26.5604728 L44.4684428,27.9546595 L41.5847264,27.9546595 Z" id="Fill-11"></path>
                <path d="M109.855819,22.5136385 C109.855819,19.1860985 112.308239,16.8252352 115.668443,16.8252352 C117.916404,16.8252352 119.278518,17.7923463 120.005316,18.7813977 L118.120864,20.534884 C117.598526,19.7706663 116.803941,19.3659655 115.804677,19.3659655 C114.056238,19.3659655 112.830357,20.6250347 112.830357,22.5136385 C112.830357,24.4022423 114.056238,25.6839034 115.804677,25.6839034 C116.803941,25.6839034 117.598526,25.2340186 118.120864,24.492393 L120.005316,26.2458793 C119.278518,27.2349307 117.916404,28.2246338 115.668443,28.2246338 C112.308239,28.2246338 109.855819,25.8637705 109.855819,22.5136385" id="Fill-12"></path>
                <path d="M126.53322,19.1635282 C124.739371,19.1635282 123.967601,20.4004399 123.853964,21.4792076 L129.257888,21.4792076 C129.167066,20.4451894 128.440268,19.1635282 126.53322,19.1635282 M120.856829,22.5136602 C120.856829,19.3659873 123.218208,16.8252569 126.53322,16.8252569 C129.825418,16.8252569 132.028186,19.253679 132.028186,22.7834608 L132.028186,23.4581793 L123.87656,23.4581793 C124.0808,24.7843728 125.170887,25.8863842 127.032962,25.8863842 C127.963781,25.8863842 129.235073,25.5038409 129.939055,24.8293396 L131.233382,26.7179433 C130.143296,27.7076464 128.417892,28.2244383 126.714646,28.2244383 C123.377257,28.2244383 120.856829,25.9986925 120.856829,22.5136602" id="Fill-13"></path>
                <path d="M59.9517294,19.4827922 C58.2730532,19.4784476 56.9039186,20.8270158 56.8997505,22.4888307 C56.8953629,24.1504284 58.2570387,25.5057308 59.9354954,25.5105099 C61.6128553,25.5148545 62.9819899,24.1667207 62.9865969,22.5053403 C62.9912038,20.8433081 61.6293086,19.4871368 59.9517294,19.4827922 M59.928256,28.2471824 C56.7253454,28.239362 54.1279165,25.6523615 54.1364723,22.4818794 C54.145028,19.3105283 56.7567164,16.737865 59.9589688,16.7465542 C63.1610019,16.7550262 65.7593083,19.3415923 65.7511913,22.5127261 C65.7424162,25.6832083 63.1294116,28.2556543 59.928256,28.2471824" id="Fill-14"></path>
                <path d="M81.1291548,20.0888876 C79.7740604,21.0705532 79.478559,22.9600259 80.4694869,24.300991 C81.4601954,25.6419562 83.3681209,25.9347832 84.722996,24.9539865 C86.0769935,23.9729727 86.3729337,22.0841517 85.3824446,20.742752 C84.3917361,19.4011352 82.4833717,19.1078737 81.1291548,20.0888876 M86.354506,27.1625711 C83.7700204,29.0355343 80.1296712,28.475948 78.2392958,25.916753 C76.3484817,23.3571236 76.9127205,19.7526145 79.4974254,17.8805202 C82.081911,16.008426 85.7224796,16.5673606 87.6139519,19.1267728 C89.5043272,21.6859678 88.9387722,25.2911286 86.354506,27.1625711" id="Fill-15"></path>
                <polygon id="Fill-16" points="73.9629714 27.9546812 71.4647012 24.2895647 68.9449319 27.9546812 65.7433376 27.9546812 69.6489141 22.3788034 65.9703933 17.0951009 69.1948028 17.0951009 71.4647012 20.4226409 73.7128812 17.0951009 76.9375101 17.0951009 73.2818045 22.3788034 77.1869423 27.9546812"></polygon>
                <polygon id="Fill-17" points="104.816565 27.9536819 107.699843 27.9536819 107.699843 17.0956222 104.816565 17.0956222"></polygon>
                <path d="M104.544537,14.2181843 C104.544537,13.2740996 105.316088,12.5322568 106.246906,12.5322568 C107.20054,12.5322568 107.97231,13.2740996 107.97231,14.2181843 C107.97231,15.1622689 107.20054,15.9267038 106.246906,15.9267038 C105.316088,15.9267038 104.544537,15.1622689 104.544537,14.2181843 L104.544537,14.2181843 Z" id="Path"></path>
                <path d="M102.292869,15.0722051 C102.678973,15.0722051 102.997071,15.1397638 103.223907,15.2970389 L103.814471,13.1838185 C103.292133,12.914018 102.565336,12.734151 101.72512,12.734151 C99.6140513,12.734151 98.0470382,14.1055284 98.0470382,16.6458243 L98.0470382,17.0961436 L96.5522004,17.0961436 L96.4523836,17.0961436 L94.3266163,17.0961436 L94.3266163,16.6458243 C94.3266163,15.5892142 94.8719886,15.0722051 95.6891695,15.0722051 C96.2115072,15.0722051 96.5976115,15.2294801 96.8928935,15.4992807 L97.9825413,13.7681692 C97.3244089,13.0265435 96.1889113,12.734151 95.1216401,12.734151 C92.9195294,12.734151 91.443558,14.195462 91.443558,16.6458243 L91.443558,17.0961436 L89.6273322,17.0961436 L89.6273322,19.5910383 L91.443558,19.5910383 L91.443558,27.9524654 L94.3266163,27.9524654 L94.3266163,19.5910383 L96.4523836,19.5910383 L96.5522004,19.5910383 L98.0470382,19.5910383 L98.0470382,27.9524654 L100.930316,27.9524654 L100.930316,19.5910383 L103.156777,19.5910383 L103.156777,17.0961436 L100.930316,17.0961436 L100.930316,16.6458243 C100.930316,15.5892142 101.475469,15.0722051 102.292869,15.0722051" id="Fill-18"></path>
                <path d="M59.0211084,15.0697721 L59.5688938,15.0697721 L75.3640693,15.0697721 L78.4985341,15.0697721 L80.5624371,12.2955187 L74.4979672,7.85488861 L73.7485739,8.53047611 C73.2481739,8.98340214 72.6986335,9.21214607 72.1153088,9.21214607 C71.5745435,9.21214607 71.0144729,9.01120767 70.4967421,8.63192285 C69.9748432,8.24981404 68.8459269,7.18125618 69.6385376,5.52183081 L70.071808,4.61358922 L63.7539572,-0.000173784566 L52.4527285,15.0697721 L59.0211084,15.0697721 Z" id="Fill-19"></path>
            </g>
        </g>
    </g>
</svg>